<svg width="39" height="29" viewBox="0 0 39 29" fill="none" xmlns="http://www.w3.org/2000/svg">
<g id="au-logo">
<g id="Au">
<path d="M9.51503 0.0979004L0.207031 18.9999H4.13303L6.13503 14.6579H17.029L19.005 18.9999H22.905L13.727 0.0979004H9.51503ZM11.621 3.0619L15.573 11.4859H7.66903L11.621 3.0619Z" fill="white"/>
<path d="M24.8465 5.0379V14.1119C24.8465 17.4659 26.6145 19.4679 30.3065 19.4679C32.3865 19.4679 33.9985 18.8699 35.5325 17.2579V18.9999H38.7045V5.0379H35.4805V14.6579C34.2845 16.1919 32.9585 16.7119 31.0865 16.7119C28.9285 16.7119 28.0705 15.5159 28.0705 12.9159V5.0379H24.8465Z" fill="white"/>
</g>
<rect id="Rectangle 3" x="25" y="25" width="14" height="4" fill="white"/>
</g>
</svg>
