<svg width="128" height="21" viewBox="0 0 128 21" fill="none" xmlns="http://www.w3.org/2000/svg">
<path d="M5.87 0.193748C4.58375 1.76875 2.9825 2.60875 0.5675 2.92375V5.07625H4.505V19.75H7.8125V0.193748H5.87ZM23.8691 0.193748C19.0653 0.193748 15.8103 2.76625 15.8103 6.80875C15.8103 9.565 17.8053 13.0562 23.5803 13.0562C25.7591 13.0562 27.6228 12.4525 29.3816 11.1137C29.3028 15.025 26.9928 17.23 23.6591 17.23C21.5328 17.23 19.8266 16.1012 19.6166 14.8937H16.1253C16.4141 17.7287 19.1966 20.2225 23.6853 20.2225C29.8278 20.2225 33.0303 15.655 33.0303 9.90625C33.0303 3.76375 29.3291 0.193748 23.8691 0.193748ZM19.3016 6.70375C19.3016 4.4725 21.2441 3.18625 23.8953 3.18625C26.8353 3.18625 28.7778 4.97125 29.3028 7.80625C28.4891 8.41 27.1241 10.1687 23.8428 10.1687C21.1128 10.1687 19.3016 8.75125 19.3016 6.70375ZM43.3644 0.193748C38.2719 0.193748 35.2532 2.1625 35.2532 5.47C35.2532 7.465 36.2244 8.85625 38.2194 9.67V9.7225C36.3032 10.3525 34.8069 12.2425 34.8069 14.5C34.8069 18.2275 37.9569 20.2225 43.3644 20.2225C48.7982 20.2225 51.9219 18.2012 51.9219 14.5C51.9219 12.2425 50.4257 10.3525 48.5094 9.7225V9.67C50.4782 8.8825 51.5019 7.465 51.5019 5.49625C51.5019 2.2675 48.4044 0.193748 43.3644 0.193748ZM38.6394 5.75875C38.6394 4.0525 40.3194 3.18625 43.3119 3.18625C46.5407 3.18625 48.1157 4.105 48.1157 5.75875C48.1157 7.49125 46.5932 8.38375 43.3644 8.38375C40.1357 8.38375 38.6394 7.49125 38.6394 5.75875ZM38.2982 14.185C38.2982 12.19 39.9782 11.2712 43.3119 11.2712C46.8557 11.2712 48.4307 12.2425 48.4307 14.185C48.4307 16.1537 46.8557 17.23 43.3644 17.23C39.8732 17.23 38.2982 16.1537 38.2982 14.185ZM63.0435 0.193748C56.691 0.193748 53.6985 4.97125 53.6985 10.51C53.6985 16.705 57.4785 20.2225 62.8598 20.2225C67.7685 20.2225 70.9185 17.545 70.9185 13.6075C70.9185 10.0375 68.0048 7.36 63.1485 7.36C60.9698 7.36 59.0798 7.99 57.3473 9.3025C57.3998 5.365 59.8148 3.18625 63.0698 3.18625C65.2485 3.18625 66.9023 4.34125 67.1123 5.5225H70.6035C70.2885 2.635 67.506 0.193748 63.0435 0.193748ZM57.426 12.61C59.0273 11.14 60.4973 10.2475 62.8335 10.2475C65.7998 10.2475 67.4273 11.7437 67.4273 13.7125C67.4273 15.9175 65.5635 17.23 62.781 17.23C59.946 17.23 57.951 15.4712 57.426 12.61ZM93.205 0.193748C86.2225 0.193748 82.1275 3.8425 82.1275 9.90625C82.1275 16.39 86.4062 20.2225 92.9162 20.2225C99.0325 20.2225 102.734 17.65 103.574 12.9512H99.8462C99.2162 15.235 96.5912 17.02 93.205 17.02C88.8737 17.02 85.9337 14.4737 85.9337 10.3262C85.9337 5.91625 88.6375 3.39625 93.415 3.39625C96.3025 3.39625 98.7437 4.6825 99.5575 6.75625H103.285C102.104 2.32 98.5862 0.193748 93.205 0.193748ZM113.33 5.18125C108.316 5.18125 105.429 8.305 105.429 12.6887C105.429 17.5187 108.631 20.2225 113.33 20.2225C118.055 20.2225 121.231 17.5187 121.231 12.6887C121.231 8.22625 118.291 5.18125 113.33 5.18125ZM108.736 12.6362C108.736 9.565 110.626 7.96375 113.304 7.96375C116.06 7.96375 117.924 9.6175 117.924 12.6362C117.924 15.5762 116.218 17.44 113.33 17.44C110.443 17.44 108.736 15.5762 108.736 12.6362ZM123.629 16.0225V19.75H127.12V16.0225H123.629Z" fill="white"/>
</svg>
