<?xml version="1.0" encoding="UTF-8"?>
<svg width="285px" height="22px" viewBox="0 0 285 22" version="1.1" xmlns="http://www.w3.org/2000/svg" xmlns:xlink="http://www.w3.org/1999/xlink">
    <!-- Generator: Sketch 52.3 (67297) - http://www.bohemiancoding.com/sketch -->
    <title>friends2</title>
    <desc>Created with Sketch.</desc>
    <g id="Page-1" stroke="none" stroke-width="1" fill="none" fill-rule="evenodd">
        <g id="Home---Real-Friends" transform="translate(-741.000000, -661.000000)" fill="#000000">
            <g id="Group-4" transform="translate(740.000000, 628.000000)">
                <path d="M1.886,51 L1.886,34.555 L7.406,34.555 C9.29200943,34.555 10.7869945,34.9536627 11.891,35.751 C12.9950055,36.5483373 13.547,37.7596585 13.547,39.385 L13.547,39.477 C13.547,41.7923449 12.3280122,43.2643302 9.89,43.893 L14.513,51 L11.201,51 L6.9,44.353 L4.945,44.353 L4.945,51 L1.886,51 Z M4.945,42.168 L7.406,42.168 C9.49134376,42.168 10.534,41.2940087 10.534,39.546 L10.534,39.454 C10.534,38.5493288 10.2695026,37.901502 9.7405,37.5105 C9.21149735,37.119498 8.43333847,36.924 7.406,36.924 L4.945,36.924 L4.945,42.168 Z M22.103,49.068 C23.1303385,49.068 23.9391637,48.7115036 24.5295,47.9985 C25.1198363,47.2854964 25.415,46.3080062 25.415,45.066 L25.415,44.905 C25.415,43.6629938 25.1198363,42.6855036 24.5295,41.9725 C23.9391637,41.2594964 23.1303385,40.903 22.103,40.903 C21.0603281,40.903 20.2438363,41.2556631 19.6535,41.961 C19.0631637,42.6663369 18.768,43.6399938 18.768,44.882 L18.768,45.066 C18.768,46.3080062 19.0631637,47.2854964 19.6535,47.9985 C20.2438363,48.7115036 21.0603281,49.068 22.103,49.068 Z M26.519,49.528 C25.3536608,50.6626723 23.874009,51.23 22.08,51.23 C20.285991,51.23 18.8101725,50.6626723 17.6525,49.528 C16.4948275,48.3933277 15.916,46.9213424 15.916,45.112 L15.916,44.928 C15.916,43.0879908 16.4986608,41.5930058 17.664,40.443 C18.8293392,39.2929942 20.308991,38.718 22.103,38.718 C23.8816756,38.718 25.3536608,39.2853277 26.519,40.42 C27.6843392,41.5546723 28.267,43.0343242 28.267,44.859 L28.267,45.043 C28.267,46.8983426 27.6843392,48.3933277 26.519,49.528 Z M33.925,51 L29.532,38.971 L32.522,38.971 L35.673,48.148 L38.778,38.971 L41.515,38.971 L37.168,51 L33.925,51 Z M48.875,51.23 C47.080991,51.23 45.6166723,50.6780055 44.482,49.574 C43.3473277,48.4699945 42.78,46.982676 42.78,45.112 L42.78,44.928 C42.78,43.0879908 43.3434944,41.5930058 44.4705,40.443 C45.5975056,39.2929942 47.0273247,38.718 48.76,38.718 C50.3853415,38.718 51.7384946,39.2239949 52.8195,40.236 C53.9005054,41.2480051 54.441,42.7659899 54.441,44.79 L54.441,45.595 L45.632,45.595 C45.6780002,46.7450057 45.9846638,47.6266636 46.552,48.24 C47.1193362,48.8533364 47.9166615,49.16 48.944,49.16 C50.5693415,49.16 51.4893323,48.5466728 51.704,47.32 L54.395,47.32 C54.1956657,48.5773396 53.6130048,49.54333 52.647,50.218 C51.6809952,50.89267 50.4236744,51.23 48.875,51.23 Z M45.678,43.732 L51.681,43.732 C51.5429993,41.7386567 50.5693424,40.742 48.76,40.742 C47.9319959,40.742 47.2458361,41.0064974 46.7015,41.5355 C46.1571639,42.0645026 45.8160007,42.796662 45.678,43.732 Z M56.925,51 L56.925,38.971 L59.708,38.971 L59.708,41.225 C60.5053373,39.614992 61.8086576,38.8023334 63.618,38.787 L63.618,41.386 C62.3146602,41.4013334 61.3371699,41.6619975 60.6855,42.168 C60.0338301,42.6740025 59.708,43.5326606 59.708,44.744 L59.708,51 L56.925,51 Z M69.736,54.404 L76.659,33.152 L79.028,33.152 L72.082,54.404 L69.736,54.404 Z M85.514,51 L91.011,34.555 L95.013,34.555 L100.441,51 L97.267,51 L95.956,46.929 L89.677,46.929 L88.389,51 L85.514,51 Z M92.828,37.062 L90.39,44.698 L95.243,44.698 L92.828,37.062 Z M102.718,51 L102.718,38.971 L105.501,38.971 L105.501,40.88 C105.807668,40.2513302 106.29833,39.7338354 106.973,39.3275 C107.64767,38.9211646 108.452662,38.718 109.388,38.718 C110.660673,38.718 111.664996,39.1051628 112.401,39.8795 C113.137004,40.6538372 113.505,41.8383254 113.505,43.433 L113.505,51 L110.722,51 L110.722,43.686 C110.722,42.7813288 110.530335,42.1143355 110.147,41.685 C109.763665,41.2556645 109.158004,41.041 108.33,41.041 C107.501996,41.041 106.823503,41.2901642 106.2945,41.7885 C105.765497,42.2868358 105.501,42.9959954 105.501,43.916 L105.501,51 L102.718,51 Z M116.702,51 L116.702,33.405 L119.485,33.405 L119.485,40.88 C119.791668,40.2513302 120.28233,39.7338354 120.957,39.3275 C121.63167,38.9211646 122.436662,38.718 123.372,38.718 C124.644673,38.718 125.648996,39.1051628 126.385,39.8795 C127.121004,40.6538372 127.489,41.8383254 127.489,43.433 L127.489,51 L124.706,51 L124.706,43.686 C124.706,42.7813288 124.514335,42.1143355 124.131,41.685 C123.747665,41.2556645 123.142004,41.041 122.314,41.041 C121.485996,41.041 120.807503,41.2901642 120.2785,41.7885 C119.749497,42.2868358 119.485,42.9959954 119.485,43.916 L119.485,51 L116.702,51 Z M135.976,51.23 C134.181991,51.23 132.717672,50.6780055 131.583,49.574 C130.448328,48.4699945 129.881,46.982676 129.881,45.112 L129.881,44.928 C129.881,43.0879908 130.444494,41.5930058 131.5715,40.443 C132.698506,39.2929942 134.128325,38.718 135.861,38.718 C137.486341,38.718 138.839495,39.2239949 139.9205,40.236 C141.001505,41.2480051 141.542,42.7659899 141.542,44.79 L141.542,45.595 L132.733,45.595 C132.779,46.7450057 133.085664,47.6266636 133.653,48.24 C134.220336,48.8533364 135.017662,49.16 136.045,49.16 C137.670341,49.16 138.590332,48.5466728 138.805,47.32 L141.496,47.32 C141.296666,48.5773396 140.714005,49.54333 139.748,50.218 C138.781995,50.89267 137.524674,51.23 135.976,51.23 Z M132.779,43.732 L138.782,43.732 C138.643999,41.7386567 137.670342,40.742 135.861,40.742 C135.032996,40.742 134.346836,41.0064974 133.8025,41.5355 C133.258164,42.0645026 132.917001,42.796662 132.779,43.732 Z M148.051,51.23 C146.79366,51.23 145.789337,50.8543371 145.038,50.103 C144.286663,49.3516629 143.911,48.209341 143.911,46.676 L143.911,38.971 L146.694,38.971 L146.694,46.354 C146.694,47.2586712 146.885665,47.9256645 147.269,48.355 C147.652335,48.7843355 148.250329,48.999 149.063,48.999 C149.860337,48.999 150.527331,48.7460025 151.064,48.24 C151.600669,47.7339975 151.869,47.0286712 151.869,46.124 L151.869,38.971 L154.652,38.971 L154.652,51 L151.869,51 L151.869,49.114 C151.546998,49.7426698 151.06017,50.252498 150.4085,50.6435 C149.75683,51.034502 148.971005,51.23 148.051,51.23 Z M162.058,51.23 C160.509326,51.23 159.298004,50.8850034 158.424,50.195 C157.549996,49.5049966 157.082334,48.523673 157.021,47.251 L159.643,47.251 C159.719667,47.8950032 159.941998,48.3779984 160.31,48.7 C160.678002,49.0220016 161.252996,49.183 162.035,49.183 C163.476341,49.183 164.197,48.6693385 164.197,47.642 C164.197,47.1666643 164.001502,46.8101679 163.6105,46.5725 C163.219498,46.3348321 162.556338,46.1393341 161.621,45.986 C160.010992,45.725332 158.884003,45.3305026 158.24,44.8015 C157.595997,44.2724974 157.274,43.4483389 157.274,42.329 C157.274,41.1943277 157.718662,40.3088365 158.608,39.6725 C159.497338,39.0361635 160.555327,38.718 161.782,38.718 C164.664681,38.718 166.236332,39.9293212 166.497,42.352 L163.921,42.352 C163.798333,41.7999972 163.572168,41.393668 163.2425,41.133 C162.912832,40.872332 162.426003,40.742 161.782,40.742 C161.183997,40.742 160.716335,40.872332 160.379,41.133 C160.041665,41.393668 159.873,41.7386645 159.873,42.168 C159.873,42.5973355 160.049332,42.9193323 160.402,43.134 C160.754668,43.3486677 161.406329,43.5403325 162.357,43.709 C163.921008,43.9543346 165.06333,44.3299975 165.784,44.836 C166.50467,45.3420025 166.865,46.192994 166.865,47.389 C166.865,48.6156728 166.447171,49.5624967 165.6115,50.2295 C164.775829,50.8965033 163.591341,51.23 162.058,51.23 Z M174.593,51.23 C172.798991,51.23 171.334672,50.6780055 170.2,49.574 C169.065328,48.4699945 168.498,46.982676 168.498,45.112 L168.498,44.928 C168.498,43.0879908 169.061494,41.5930058 170.1885,40.443 C171.315506,39.2929942 172.745325,38.718 174.478,38.718 C176.103341,38.718 177.456495,39.2239949 178.5375,40.236 C179.618505,41.2480051 180.159,42.7659899 180.159,44.79 L180.159,45.595 L171.35,45.595 C171.396,46.7450057 171.702664,47.6266636 172.27,48.24 C172.837336,48.8533364 173.634662,49.16 174.662,49.16 C176.287341,49.16 177.207332,48.5466728 177.422,47.32 L180.113,47.32 C179.913666,48.5773396 179.331005,49.54333 178.365,50.218 C177.398995,50.89267 176.141674,51.23 174.593,51.23 Z M171.396,43.732 L177.399,43.732 C177.260999,41.7386567 176.287342,40.742 174.478,40.742 C173.649996,40.742 172.963836,41.0064974 172.4195,41.5355 C171.875164,42.0645026 171.534001,42.796662 171.396,43.732 Z M182.643,51 L182.643,38.971 L185.426,38.971 L185.426,41.225 C186.223337,39.614992 187.526658,38.8023334 189.336,38.787 L189.336,41.386 C188.03266,41.4013334 187.05517,41.6619975 186.4035,42.168 C185.75183,42.6740025 185.426,43.5326606 185.426,44.744 L185.426,51 L182.643,51 Z M191.406,45.733 L191.406,43.433 L196.926,43.433 L196.926,45.733 L191.406,45.733 Z M200.123,51 L200.123,34.555 L206.011,34.555 C209.599018,34.555 211.393,35.9809857 211.393,38.833 L211.393,38.925 C211.393,40.719009 210.526675,41.8843306 208.794,42.421 C209.913339,42.6663346 210.741331,43.1033302 211.278,43.732 C211.814669,44.3606698 212.083,45.2193279 212.083,46.308 L212.083,46.4 C212.083,47.9180076 211.600005,49.0641628 210.634,49.8385 C209.667995,50.6128372 208.272676,51 206.448,51 L200.123,51 Z M203.113,48.815 L206.08,48.815 C208.073343,48.815 209.07,47.9410087 209.07,46.193 L209.07,46.101 C209.07,45.242329 208.813169,44.6021688 208.2995,44.1805 C207.785831,43.7588312 206.977006,43.548 205.873,43.548 L203.113,43.548 L203.113,48.815 Z M203.113,41.478 L205.643,41.478 C206.639672,41.478 207.356498,41.2863353 207.7935,40.903 C208.230502,40.5196647 208.449,39.9063376 208.449,39.063 L208.449,38.971 C208.449,38.1889961 208.219002,37.6216684 207.759,37.269 C207.298998,36.9163316 206.578338,36.74 205.597,36.74 L203.113,36.74 L203.113,41.478 Z M218.753,51.23 C217.49566,51.23 216.491337,50.8543371 215.74,50.103 C214.988663,49.3516629 214.613,48.209341 214.613,46.676 L214.613,38.971 L217.396,38.971 L217.396,46.354 C217.396,47.2586712 217.587665,47.9256645 217.971,48.355 C218.354335,48.7843355 218.952329,48.999 219.765,48.999 C220.562337,48.999 221.229331,48.7460025 221.766,48.24 C222.302669,47.7339975 222.571,47.0286712 222.571,46.124 L222.571,38.971 L225.354,38.971 L225.354,51 L222.571,51 L222.571,49.114 C222.248998,49.7426698 221.76217,50.252498 221.1105,50.6435 C220.45883,51.034502 219.673005,51.23 218.753,51.23 Z M232.76,51.23 C231.211326,51.23 230.000004,50.8850034 229.126,50.195 C228.251996,49.5049966 227.784334,48.523673 227.723,47.251 L230.345,47.251 C230.421667,47.8950032 230.643998,48.3779984 231.012,48.7 C231.380002,49.0220016 231.954996,49.183 232.737,49.183 C234.178341,49.183 234.899,48.6693385 234.899,47.642 C234.899,47.1666643 234.703502,46.8101679 234.3125,46.5725 C233.921498,46.3348321 233.258338,46.1393341 232.323,45.986 C230.712992,45.725332 229.586003,45.3305026 228.942,44.8015 C228.297997,44.2724974 227.976,43.4483389 227.976,42.329 C227.976,41.1943277 228.420662,40.3088365 229.31,39.6725 C230.199338,39.0361635 231.257327,38.718 232.484,38.718 C235.366681,38.718 236.938332,39.9293212 237.199,42.352 L234.623,42.352 C234.500333,41.7999972 234.274168,41.393668 233.9445,41.133 C233.614832,40.872332 233.128003,40.742 232.484,40.742 C231.885997,40.742 231.418335,40.872332 231.081,41.133 C230.743665,41.393668 230.575,41.7386645 230.575,42.168 C230.575,42.5973355 230.751332,42.9193323 231.104,43.134 C231.456668,43.3486677 232.108329,43.5403325 233.059,43.709 C234.623008,43.9543346 235.76533,44.3299975 236.486,44.836 C237.20667,45.3420025 237.567,46.192994 237.567,47.389 C237.567,48.6156728 237.149171,49.5624967 236.3135,50.2295 C235.477829,50.8965033 234.293341,51.23 232.76,51.23 Z M245.272,51.23 C243.508658,51.23 242.055839,50.6818388 240.9135,49.5855 C239.771161,48.4891612 239.2,47.005676 239.2,45.135 L239.2,44.951 C239.2,43.080324 239.782661,41.573839 240.948,40.4315 C242.113339,39.289161 243.554658,38.718 245.272,38.718 C246.744007,38.718 247.989828,39.082163 249.0095,39.8105 C250.029172,40.538837 250.615666,41.6773256 250.769,43.226 L248.078,43.226 C247.863332,41.7079924 246.943341,40.949 245.318,40.949 C244.351995,40.949 243.56617,41.3016631 242.9605,42.007 C242.35483,42.7123369 242.052,43.6783272 242.052,44.905 L242.052,45.089 C242.052,46.3770064 242.347164,47.3659965 242.9375,48.056 C243.527836,48.7460035 244.344328,49.091 245.387,49.091 C246.15367,49.091 246.809164,48.8648356 247.3535,48.4125 C247.897836,47.9601644 248.208333,47.3276707 248.285,46.515 L250.838,46.515 C250.730666,47.9256737 250.178672,49.0641623 249.182,49.9305 C248.185328,50.7968377 246.882008,51.23 245.272,51.23 Z M253.23,51 L253.23,33.405 L256.013,33.405 L256.013,40.88 C256.319668,40.2513302 256.81033,39.7338354 257.485,39.3275 C258.15967,38.9211646 258.964662,38.718 259.9,38.718 C261.172673,38.718 262.176996,39.1051628 262.913,39.8795 C263.649004,40.6538372 264.017,41.8383254 264.017,43.433 L264.017,51 L261.234,51 L261.234,43.686 C261.234,42.7813288 261.042335,42.1143355 260.659,41.685 C260.275665,41.2556645 259.670004,41.041 258.842,41.041 C258.013996,41.041 257.335503,41.2901642 256.8065,41.7885 C256.277497,42.2868358 256.013,42.9959954 256.013,43.916 L256.013,51 L253.23,51 Z M276.368,54.404 L283.291,33.152 L285.66,33.152 L278.714,54.404 L276.368,54.404 Z" id="friends2"></path>
            </g>
        </g>
    </g>
</svg>