<?xml version="1.0" encoding="UTF-8"?>
<svg width="270px" height="23px" viewBox="0 0 270 23" version="1.1" xmlns="http://www.w3.org/2000/svg" xmlns:xlink="http://www.w3.org/1999/xlink">
    <!-- Generator: Sketch 52.3 (67297) - http://www.bohemiancoding.com/sketch -->
    <title>friends1</title>
    <desc>Created with Sketch.</desc>
    <g id="Page-1" stroke="none" stroke-width="1" fill="none" fill-rule="evenodd">
        <g id="Home---Real-Friends" transform="translate(-741.000000, -638.000000)" fill="#000000">
            <g id="Group-4" transform="translate(740.000000, 628.000000)">
                <path d="M9.269,28.23 C6.69298712,28.23 4.68050725,27.4595077 3.2315,25.9185 C1.78249276,24.3774923 1.058,22.3650124 1.058,19.881 L1.058,19.697 C1.058,17.2436544 1.824659,15.2311745 3.358,13.6595 C4.891341,12.0878255 6.86165463,11.302 9.269,11.302 C11.1703428,11.302 12.7764934,11.7619954 14.0875,12.682 C15.3985066,13.6020046 16.1536657,14.9896574 16.353,16.845 L13.294,16.845 C12.9413316,14.7596562 11.6150115,13.717 9.315,13.717 C7.72032536,13.717 6.47450448,14.2613279 5.5775,15.35 C4.68049552,16.4386721 4.232,17.8953242 4.232,19.72 L4.232,19.904 C4.232,21.7286758 4.66132904,23.173828 5.52,24.2395 C6.37867096,25.305172 7.64365831,25.838 9.315,25.838 C10.771674,25.838 11.864163,25.4546705 12.5925,24.688 C13.320837,23.9213295 13.7079998,22.9246728 13.754,21.698 L9.614,21.698 L9.614,19.398 L16.767,19.398 L16.767,20.916 C16.767,23.1853447 16.1000067,24.9716601 14.766,26.275 C13.4319933,27.5783398 11.5996783,28.23 9.269,28.23 Z M24.863,26.068 C25.8903385,26.068 26.6991637,25.7115036 27.2895,24.9985 C27.8798363,24.2854964 28.175,23.3080062 28.175,22.066 L28.175,21.905 C28.175,20.6629938 27.8798363,19.6855036 27.2895,18.9725 C26.6991637,18.2594964 25.8903385,17.903 24.863,17.903 C23.8203281,17.903 23.0038363,18.2556631 22.4135,18.961 C21.8231637,19.6663369 21.528,20.6399938 21.528,21.882 L21.528,22.066 C21.528,23.3080062 21.8231637,24.2854964 22.4135,24.9985 C23.0038363,25.7115036 23.8203281,26.068 24.863,26.068 Z M29.279,26.528 C28.1136608,27.6626723 26.634009,28.23 24.84,28.23 C23.045991,28.23 21.5701725,27.6626723 20.4125,26.528 C19.2548275,25.3933277 18.676,23.9213424 18.676,22.112 L18.676,21.928 C18.676,20.0879908 19.2586608,18.5930057 20.424,17.443 C21.5893392,16.2929942 23.068991,15.718 24.863,15.718 C26.6416756,15.718 28.1136608,16.2853277 29.279,17.42 C30.4443392,18.5546723 31.027,20.0343242 31.027,21.859 L31.027,22.043 C31.027,23.8983426 30.4443392,25.3933277 29.279,26.528 Z M38.916,26.068 C39.9433385,26.068 40.7521637,25.7115036 41.3425,24.9985 C41.9328363,24.2854964 42.228,23.3080062 42.228,22.066 L42.228,21.905 C42.228,20.6629938 41.9328363,19.6855036 41.3425,18.9725 C40.7521637,18.2594964 39.9433385,17.903 38.916,17.903 C37.8733281,17.903 37.0568363,18.2556631 36.4665,18.961 C35.8761637,19.6663369 35.581,20.6399938 35.581,21.882 L35.581,22.066 C35.581,23.3080062 35.8761637,24.2854964 36.4665,24.9985 C37.0568363,25.7115036 37.8733281,26.068 38.916,26.068 Z M43.332,26.528 C42.1666608,27.6626723 40.687009,28.23 38.893,28.23 C37.098991,28.23 35.6231725,27.6626723 34.4655,26.528 C33.3078275,25.3933277 32.729,23.9213424 32.729,22.112 L32.729,21.928 C32.729,20.0879908 33.3116608,18.5930057 34.477,17.443 C35.6423392,16.2929942 37.121991,15.718 38.916,15.718 C40.6946756,15.718 42.1666608,16.2853277 43.332,17.42 C44.4973392,18.5546723 45.08,20.0343242 45.08,21.859 L45.08,22.043 C45.08,23.8983426 44.4973392,25.3933277 43.332,26.528 Z M52.716,32.416 C50.921991,32.416 49.5496714,32.0556703 48.599,31.335 C47.6483286,30.6143297 47.0886675,29.6406728 46.92,28.414 L49.726,28.414 C49.9713346,29.6713396 50.9603247,30.3 52.693,30.3 C54.9316779,30.3 56.051,29.2190108 56.051,27.057 L56.051,25.286 C55.6983316,25.8993364 55.1655036,26.4244978 54.4525,26.8615 C53.7394964,27.2985022 52.9613376,27.517 52.118,27.517 C50.584659,27.517 49.3120051,26.9880053 48.3,25.93 C47.2879949,24.8719947 46.782,23.4920085 46.782,21.79 L46.782,21.629 C46.782,19.9423249 47.2956615,18.5355056 48.323,17.4085 C49.3503385,16.2814944 50.6383256,15.718 52.187,15.718 C53.9656756,15.718 55.2536627,16.4156597 56.051,17.811 L56.051,15.971 L58.834,15.971 L58.834,27.103 C58.8186666,28.8356753 58.2705054,30.1543288 57.1895,31.059 C56.1084946,31.9636712 54.6173428,32.416 52.716,32.416 Z M52.808,25.378 C53.7893382,25.378 54.5904969,25.0483366 55.2115,24.389 C55.8325031,23.7296634 56.143,22.8326723 56.143,21.698 L56.143,21.537 C56.143,20.4023277 55.8516696,19.5130032 55.269,18.869 C54.6863304,18.2249968 53.8966717,17.903 52.9,17.903 C51.8879949,17.903 51.0906696,18.24033 50.508,18.915 C49.9253304,19.58967 49.634,20.4789945 49.634,21.583 L49.634,21.767 C49.634,22.8556721 49.932997,23.7296634 50.531,24.389 C51.129003,25.0483366 51.8879954,25.378 52.808,25.378 Z M62.215,28 L62.215,10.405 L64.998,10.405 L64.998,28 L62.215,28 Z M73.669,28.23 C71.874991,28.23 70.4106723,27.6780055 69.276,26.574 C68.1413277,25.4699945 67.574,23.982676 67.574,22.112 L67.574,21.928 C67.574,20.0879908 68.1374944,18.5930057 69.2645,17.443 C70.3915056,16.2929942 71.8213247,15.718 73.554,15.718 C75.1793415,15.718 76.5324946,16.2239949 77.6135,17.236 C78.6945054,18.2480051 79.235,19.7659899 79.235,21.79 L79.235,22.595 L70.426,22.595 C70.4720002,23.7450057 70.7786638,24.6266636 71.346,25.24 C71.9133362,25.8533364 72.7106615,26.16 73.738,26.16 C75.3633415,26.16 76.2833323,25.5466728 76.498,24.32 L79.189,24.32 C78.9896657,25.5773396 78.4070048,26.54333 77.441,27.218 C76.4749952,27.89267 75.2176744,28.23 73.669,28.23 Z M70.472,20.732 L76.475,20.732 C76.3369993,18.7386567 75.3633424,17.742 73.554,17.742 C72.7259959,17.742 72.0398361,18.0064974 71.4955,18.5355 C70.9511639,19.0645026 70.6100007,19.796662 70.472,20.732 Z M90.873,31.404 L97.796,10.152 L100.165,10.152 L93.219,31.404 L90.873,31.404 Z M112.125,28 L117.622,11.555 L121.624,11.555 L127.052,28 L123.878,28 L122.567,23.929 L116.288,23.929 L115,28 L112.125,28 Z M119.439,14.062 L117.001,21.698 L121.854,21.698 L119.439,14.062 Z M133.837,28.23 C132.272992,28.23 131.000338,27.697172 130.019,26.6315 C129.037662,25.565828 128.547,24.0823428 128.547,22.181 L128.547,21.997 C128.547,20.0956572 129.052995,18.573839 130.065,17.4315 C131.077005,16.289161 132.372659,15.718 133.952,15.718 C135.730676,15.718 137.010996,16.4156597 137.793,17.811 L137.793,10.405 L140.576,10.405 L140.576,28 L137.793,28 L137.793,25.976 C137.455665,26.6046698 136.922837,27.1374978 136.1945,27.5745 C135.466163,28.0115022 134.680338,28.23 133.837,28.23 Z M134.527,26.022 C135.539005,26.022 136.351664,25.68467 136.965,25.01 C137.578336,24.33533 137.885,23.3463398 137.885,22.043 L137.885,21.859 C137.885,20.5556602 137.601336,19.5705033 137.034,18.9035 C136.466664,18.2364967 135.669338,17.903 134.642,17.903 C133.614662,17.903 132.817336,18.2518298 132.25,18.9495 C131.682664,19.6471702 131.399,20.6399936 131.399,21.928 L131.399,22.112 C131.399,23.384673 131.686497,24.3544967 132.2615,25.0215 C132.836503,25.6885033 133.591662,26.022 134.527,26.022 Z M143.957,28 L143.957,15.971 L146.74,15.971 L146.74,28 L143.957,28 Z M146.487,13.533 C146.164998,13.8396682 145.774002,13.993 145.314,13.993 C144.853998,13.993 144.463002,13.8396682 144.141,13.533 C143.818998,13.2263318 143.658,12.8506689 143.658,12.406 C143.658,11.9459977 143.818998,11.5626682 144.141,11.256 C144.463002,10.9493318 144.853998,10.796 145.314,10.796 C145.774002,10.796 146.164998,10.9493318 146.487,11.256 C146.809002,11.5626682 146.97,11.9459977 146.97,12.406 C146.97,12.8506689 146.809002,13.2263318 146.487,13.533 Z M154.629,28.23 C153.064992,28.23 151.792338,27.697172 150.811,26.6315 C149.829662,25.565828 149.339,24.0823428 149.339,22.181 L149.339,21.997 C149.339,20.0956572 149.844995,18.573839 150.857,17.4315 C151.869005,16.289161 153.164659,15.718 154.744,15.718 C156.522676,15.718 157.802996,16.4156597 158.585,17.811 L158.585,10.405 L161.368,10.405 L161.368,28 L158.585,28 L158.585,25.976 C158.247665,26.6046698 157.714837,27.1374978 156.9865,27.5745 C156.258163,28.0115022 155.472338,28.23 154.629,28.23 Z M155.319,26.022 C156.331005,26.022 157.143664,25.68467 157.757,25.01 C158.370336,24.33533 158.677,23.3463398 158.677,22.043 L158.677,21.859 C158.677,20.5556602 158.393336,19.5705033 157.826,18.9035 C157.258664,18.2364967 156.461338,17.903 155.434,17.903 C154.406662,17.903 153.609336,18.2518298 153.042,18.9495 C152.474664,19.6471702 152.191,20.6399936 152.191,21.928 L152.191,22.112 C152.191,23.384673 152.478497,24.3544967 153.0535,25.0215 C153.628503,25.6885033 154.383662,26.022 155.319,26.022 Z M167.831,28.23 C166.650327,28.23 165.684337,27.9348363 164.933,27.3445 C164.181663,26.7541637 163.806,25.861006 163.806,24.665 C163.806,23.3463267 164.365661,22.3803364 165.485,21.767 C166.604339,21.1536636 168.099324,20.847 169.97,20.847 L171.465,20.847 L171.465,20.226 C171.465,19.3979959 171.300168,18.788502 170.9705,18.3975 C170.640832,18.006498 170.077337,17.811 169.28,17.811 C167.88466,17.811 167.118001,18.4396604 166.98,19.697 L164.289,19.697 C164.396334,18.3629933 164.921495,17.3663366 165.8645,16.707 C166.807505,16.0476634 167.999659,15.718 169.441,15.718 C172.645683,15.718 174.248,17.1823187 174.248,20.111 L174.248,28 L171.511,28 L171.511,26.528 C170.652329,27.6626723 169.425675,28.23 167.831,28.23 Z M168.498,26.229 C169.372004,26.229 170.084997,26.0105022 170.637,25.5735 C171.189003,25.1364978 171.465,24.5423371 171.465,23.791 L171.465,22.595 L170.039,22.595 C167.723655,22.595 166.566,23.2466602 166.566,24.55 C166.566,25.6693389 167.209994,26.229 168.498,26.229 Z M181.562,28.23 C180.013326,28.23 178.802004,27.8850034 177.928,27.195 C177.053996,26.5049966 176.586334,25.523673 176.525,24.251 L179.147,24.251 C179.223667,24.8950032 179.445998,25.3779984 179.814,25.7 C180.182002,26.0220016 180.756996,26.183 181.539,26.183 C182.980341,26.183 183.701,25.6693385 183.701,24.642 C183.701,24.1666643 183.505502,23.8101679 183.1145,23.5725 C182.723498,23.3348321 182.060338,23.1393341 181.125,22.986 C179.514992,22.725332 178.388003,22.3305026 177.744,21.8015 C177.099997,21.2724974 176.778,20.4483389 176.778,19.329 C176.778,18.1943277 177.222662,17.3088365 178.112,16.6725 C179.001338,16.0361635 180.059327,15.718 181.286,15.718 C184.168681,15.718 185.740332,16.9293212 186.001,19.352 L183.425,19.352 C183.302333,18.7999972 183.076168,18.393668 182.7465,18.133 C182.416832,17.872332 181.930003,17.742 181.286,17.742 C180.687997,17.742 180.220335,17.872332 179.883,18.133 C179.545665,18.393668 179.377,18.7386645 179.377,19.168 C179.377,19.5973355 179.553332,19.9193323 179.906,20.134 C180.258668,20.3486677 180.910329,20.5403325 181.861,20.709 C183.425008,20.9543346 184.56733,21.3299975 185.288,21.836 C186.00867,22.3420025 186.369,23.192994 186.369,24.389 C186.369,25.6156728 185.951171,26.5624967 185.1155,27.2295 C184.279829,27.8965033 183.095341,28.23 181.562,28.23 Z M197.961,31.404 L204.884,10.152 L207.253,10.152 L200.307,31.404 L197.961,31.404 Z M220.478,28 L220.478,11.555 L223.537,11.555 L223.537,25.562 L230.552,25.562 L230.552,28 L220.478,28 Z M236.072,28.23 C234.891327,28.23 233.925337,27.9348363 233.174,27.3445 C232.422663,26.7541637 232.047,25.861006 232.047,24.665 C232.047,23.3463267 232.606661,22.3803364 233.726,21.767 C234.845339,21.1536636 236.340324,20.847 238.211,20.847 L239.706,20.847 L239.706,20.226 C239.706,19.3979959 239.541168,18.788502 239.2115,18.3975 C238.881832,18.006498 238.318337,17.811 237.521,17.811 C236.12566,17.811 235.359001,18.4396604 235.221,19.697 L232.53,19.697 C232.637334,18.3629933 233.162495,17.3663366 234.1055,16.707 C235.048505,16.0476634 236.240659,15.718 237.682,15.718 C240.886683,15.718 242.489,17.1823187 242.489,20.111 L242.489,28 L239.752,28 L239.752,26.528 C238.893329,27.6626723 237.666675,28.23 236.072,28.23 Z M236.739,26.229 C237.613004,26.229 238.325997,26.0105022 238.878,25.5735 C239.430003,25.1364978 239.706,24.5423371 239.706,23.791 L239.706,22.595 L238.28,22.595 C235.964655,22.595 234.807,23.2466602 234.807,24.55 C234.807,25.6693389 235.450994,26.229 236.739,26.229 Z M245.686,28 L245.686,15.971 L248.469,15.971 L248.469,17.88 C248.775668,17.2513302 249.26633,16.7338354 249.941,16.3275 C250.61567,15.9211646 251.420662,15.718 252.356,15.718 C253.628673,15.718 254.632996,16.1051628 255.369,16.8795 C256.105004,17.6538372 256.473,18.8383254 256.473,20.433 L256.473,28 L253.69,28 L253.69,20.686 C253.69,19.7813288 253.498335,19.1143355 253.115,18.685 C252.731665,18.2556645 252.126004,18.041 251.298,18.041 C250.469996,18.041 249.791503,18.2901642 249.2625,18.7885 C248.733497,19.2868358 248.469,19.9959954 248.469,20.916 L248.469,28 L245.686,28 Z M264.178,28.23 C262.613992,28.23 261.341338,27.697172 260.36,26.6315 C259.378662,25.565828 258.888,24.0823428 258.888,22.181 L258.888,21.997 C258.888,20.0956572 259.393995,18.573839 260.406,17.4315 C261.418005,16.289161 262.713659,15.718 264.293,15.718 C266.071676,15.718 267.351996,16.4156597 268.134,17.811 L268.134,10.405 L270.917,10.405 L270.917,28 L268.134,28 L268.134,25.976 C267.796665,26.6046698 267.263837,27.1374978 266.5355,27.5745 C265.807163,28.0115022 265.021338,28.23 264.178,28.23 Z M264.868,26.022 C265.880005,26.022 266.692664,25.68467 267.306,25.01 C267.919336,24.33533 268.226,23.3463398 268.226,22.043 L268.226,21.859 C268.226,20.5556602 267.942336,19.5705033 267.375,18.9035 C266.807664,18.2364967 266.010338,17.903 264.983,17.903 C263.955662,17.903 263.158336,18.2518298 262.591,18.9495 C262.023664,19.6471702 261.74,20.6399936 261.74,21.928 L261.74,22.112 C261.74,23.384673 262.027497,24.3544967 262.6025,25.0215 C263.177503,25.6885033 263.932662,26.022 264.868,26.022 Z" id="friends1"></path>
            </g>
        </g>
    </g>
</svg>