<?xml version="1.0" encoding="UTF-8"?>
<svg width="230px" height="23px" viewBox="0 0 230 23" version="1.1" xmlns="http://www.w3.org/2000/svg" xmlns:xlink="http://www.w3.org/1999/xlink">
    <!-- Generator: Sketch 52.3 (67297) - http://www.bohemiancoding.com/sketch -->
    <title>friends5</title>
    <desc>Created with Sketch.</desc>
    <g id="Page-1" stroke="none" stroke-width="1" fill="none" fill-rule="evenodd">
        <g id="Home---Real-Friends" transform="translate(-741.000000, -730.000000)" fill="#000000">
            <g id="Group-4" transform="translate(740.000000, 628.000000)">
                <path d="M5.166,120 L1.072,103.555 L4.2,103.555 L7.052,115.63 L10.249,103.555 L12.779,103.555 L16.045,115.699 L18.989,103.555 L21.841,103.555 L17.724,120 L14.665,120 L11.422,108.017 L8.087,120 L5.166,120 Z M27.246,120.23 C26.0653274,120.23 25.0993371,119.934836 24.348,119.3445 C23.5966629,118.754164 23.221,117.861006 23.221,116.665 C23.221,115.346327 23.7806611,114.380336 24.9,113.767 C26.0193389,113.153664 27.514324,112.847 29.385,112.847 L30.88,112.847 L30.88,112.226 C30.88,111.397996 30.7151683,110.788502 30.3855,110.3975 C30.0558317,110.006498 29.4923373,109.811 28.695,109.811 C27.2996597,109.811 26.5330007,110.43966 26.395,111.697 L23.704,111.697 C23.8113339,110.362993 24.3364953,109.366337 25.2795,108.707 C26.2225047,108.047663 27.4146595,107.718 28.856,107.718 C32.0606827,107.718 33.663,109.182319 33.663,112.111 L33.663,120 L30.926,120 L30.926,118.528 C30.067329,119.662672 28.8406746,120.23 27.246,120.23 Z M27.913,118.229 C28.7870044,118.229 29.4999972,118.010502 30.052,117.5735 C30.6040028,117.136498 30.88,116.542337 30.88,115.791 L30.88,114.595 L29.454,114.595 C27.1386551,114.595 25.981,115.24666 25.981,116.55 C25.981,117.669339 26.6249936,118.229 27.913,118.229 Z M36.929,120 L36.929,102.405 L39.712,102.405 L39.712,120 L36.929,120 Z M43.093,120 L43.093,102.405 L45.876,102.405 L45.876,113.261 L50.177,107.971 L53.213,107.971 L48.544,113.491 L53.604,120 L50.384,120 L45.876,114.089 L45.876,120 L43.093,120 Z M60.803,120.23 C59.008991,120.23 57.5446723,119.678006 56.41,118.574 C55.2753277,117.469994 54.708,115.982676 54.708,114.112 L54.708,113.928 C54.708,112.087991 55.2714944,110.593006 56.3985,109.443 C57.5255056,108.292994 58.9553247,107.718 60.688,107.718 C62.3133415,107.718 63.6664946,108.223995 64.7475,109.236 C65.8285054,110.248005 66.369,111.76599 66.369,113.79 L66.369,114.595 L57.56,114.595 C57.6060002,115.745006 57.9126638,116.626664 58.48,117.24 C59.0473362,117.853336 59.8446615,118.16 60.872,118.16 C62.4973415,118.16 63.4173323,117.546673 63.632,116.32 L66.323,116.32 C66.1236657,117.57734 65.5410048,118.54333 64.575,119.218 C63.6089952,119.89267 62.3516744,120.23 60.803,120.23 Z M57.606,112.732 L63.609,112.732 C63.4709993,110.738657 62.4973424,109.742 60.688,109.742 C59.8599959,109.742 59.1738361,110.006497 58.6295,110.5355 C58.0851639,111.064503 57.7440007,111.796662 57.606,112.732 Z M68.853,120 L68.853,107.971 L71.636,107.971 L71.636,110.225 C72.4333373,108.614992 73.7366576,107.802333 75.546,107.787 L75.546,110.386 C74.2426602,110.401333 73.2651699,110.661997 72.6135,111.168 C71.9618301,111.674003 71.636,112.532661 71.636,113.744 L71.636,120 L68.853,120 Z M97.557,111.49 L94.866,116.642 L97.626,120 L94.107,120 L92.727,118.321 C91.5003272,119.57834 89.9976756,120.207 88.219,120.207 C86.6089919,120.207 85.3056716,119.781504 84.309,118.9305 C83.3123284,118.079496 82.814,116.941007 82.814,115.515 C82.814,114.380328 83.1321635,113.425837 83.7685,112.6515 C84.4048365,111.877163 85.320994,111.206336 86.517,110.639 C85.658329,109.504328 85.229,108.423338 85.229,107.396 C85.229,106.153994 85.6659956,105.180337 86.54,104.475 C87.4140044,103.769663 88.487327,103.417 89.76,103.417 C90.9253392,103.417 91.9066627,103.74283 92.704,104.3945 C93.5013373,105.04617 93.9,105.908661 93.9,106.982 C93.9,108.791342 92.7576781,110.186662 90.473,111.168 L93.371,114.71 L95.05,111.49 L97.557,111.49 Z M88.541,117.907 C89.6143387,117.907 90.5343295,117.454671 91.301,116.55 L87.805,112.295 C87.1149966,112.647668 86.5936684,113.042498 86.241,113.4795 C85.8883316,113.916502 85.712,114.49533 85.712,115.216 C85.712,116.044004 85.9611642,116.699498 86.4595,117.1825 C86.9578358,117.665502 87.6516622,117.907 88.541,117.907 Z M87.943,107.419 C87.943,108.032336 88.3569959,108.837328 89.185,109.834 C89.9670039,109.465998 90.526665,109.075002 90.864,108.661 C91.201335,108.246998 91.37,107.72567 91.37,107.097 C91.37,106.621664 91.2205015,106.230668 90.9215,105.924 C90.6224985,105.617332 90.2353357,105.464 89.76,105.464 C89.2233307,105.464 88.786335,105.632665 88.449,105.97 C88.111665,106.307335 87.943,106.79033 87.943,107.419 Z M112.829,120.23 C110.283654,120.23 108.309507,119.478674 106.9065,117.976 C105.503493,116.473326 104.802,114.441679 104.802,111.881 L104.802,111.697 C104.802,109.243654 105.557159,107.231175 107.0675,105.6595 C108.577841,104.087825 110.482989,103.302 112.783,103.302 C114.745676,103.302 116.36716,103.792662 117.6475,104.774 C118.92784,105.755338 119.659999,107.181324 119.844,109.052 L116.739,109.052 C116.386332,106.843989 115.075345,105.74 112.806,105.74 C111.349326,105.74 110.187838,106.272828 109.3215,107.3385 C108.455162,108.404172 108.022,109.849324 108.022,111.674 L108.022,111.858 C108.022,113.713343 108.443662,115.158495 109.287,116.1935 C110.130338,117.228505 111.310992,117.746 112.829,117.746 C113.994339,117.746 114.94883,117.450836 115.6925,116.8605 C116.43617,116.270164 116.884666,115.407672 117.038,114.273 L120.028,114.273 C119.797999,116.20501 119.04284,117.680828 117.7625,118.7005 C116.48216,119.720172 114.837677,120.23 112.829,120.23 Z M127.825,118.068 C128.852338,118.068 129.661164,117.711504 130.2515,116.9985 C130.841836,116.285496 131.137,115.308006 131.137,114.066 L131.137,113.905 C131.137,112.662994 130.841836,111.685504 130.2515,110.9725 C129.661164,110.259496 128.852338,109.903 127.825,109.903 C126.782328,109.903 125.965836,110.255663 125.3755,110.961 C124.785164,111.666337 124.49,112.639994 124.49,113.882 L124.49,114.066 C124.49,115.308006 124.785164,116.285496 125.3755,116.9985 C125.965836,117.711504 126.782328,118.068 127.825,118.068 Z M132.241,118.528 C131.075661,119.662672 129.596009,120.23 127.802,120.23 C126.007991,120.23 124.532172,119.662672 123.3745,118.528 C122.216828,117.393328 121.638,115.921342 121.638,114.112 L121.638,113.928 C121.638,112.087991 122.220661,110.593006 123.386,109.443 C124.551339,108.292994 126.030991,107.718 127.825,107.718 C129.603676,107.718 131.075661,108.285328 132.241,109.42 C133.406339,110.554672 133.989,112.034324 133.989,113.859 L133.989,114.043 C133.989,115.898343 133.406339,117.393328 132.241,118.528 Z M136.496,120 L136.496,107.971 L139.279,107.971 L139.279,109.811 C139.585668,109.212997 140.060997,108.714669 140.705,108.316 C141.349003,107.917331 142.092662,107.718 142.936,107.718 C144.622675,107.718 145.75733,108.438659 146.34,109.88 C146.784669,109.174663 147.374996,108.638002 148.111,108.27 C148.847004,107.901998 149.613663,107.718 150.411,107.718 C151.591673,107.718 152.55383,108.105163 153.2975,108.8795 C154.04117,109.653837 154.413,110.822992 154.413,112.387 L154.413,120 L151.63,120 L151.63,112.571 C151.63,110.884325 150.917007,110.041 149.491,110.041 C148.754996,110.041 148.130169,110.282498 147.6165,110.7655 C147.102831,111.248502 146.846,111.926996 146.846,112.801 L146.846,120 L144.063,120 L144.063,112.571 C144.063,110.884325 143.350007,110.041 141.924,110.041 C141.187996,110.041 140.563169,110.282498 140.0495,110.7655 C139.535831,111.248502 139.279,111.926996 139.279,112.801 L139.279,120 L136.496,120 Z M157.61,124.117 L157.61,107.971 L160.393,107.971 L160.393,109.903 C160.745668,109.289664 161.278496,108.772169 161.9915,108.3505 C162.704504,107.928831 163.482662,107.718 164.326,107.718 C165.874674,107.718 167.151162,108.266161 168.1555,109.3625 C169.159838,110.458839 169.662,111.949991 169.662,113.836 L169.662,114.02 C169.662,115.921343 169.167505,117.431661 168.1785,118.551 C167.189495,119.670339 165.905341,120.23 164.326,120.23 C163.421329,120.23 162.624003,120.034502 161.934,119.6435 C161.243997,119.252498 160.730335,118.74267 160.393,118.114 L160.393,124.117 L157.61,124.117 Z M163.636,118.022 C164.663338,118.022 165.449164,117.68467 165.9935,117.01 C166.537836,116.33533 166.81,115.354006 166.81,114.066 L166.81,113.882 C166.81,112.593994 166.514836,111.608837 165.9245,110.9265 C165.334164,110.244163 164.563671,109.903 163.613,109.903 C162.616328,109.903 161.81517,110.244163 161.2095,110.9265 C160.60383,111.608837 160.301,112.593994 160.301,113.882 L160.301,114.066 C160.301,115.36934 160.596164,116.354497 161.1865,117.0215 C161.776836,117.688503 162.593328,118.022 163.636,118.022 Z M175.32,120.23 C174.139327,120.23 173.173337,119.934836 172.422,119.3445 C171.670663,118.754164 171.295,117.861006 171.295,116.665 C171.295,115.346327 171.854661,114.380336 172.974,113.767 C174.093339,113.153664 175.588324,112.847 177.459,112.847 L178.954,112.847 L178.954,112.226 C178.954,111.397996 178.789168,110.788502 178.4595,110.3975 C178.129832,110.006498 177.566337,109.811 176.769,109.811 C175.37366,109.811 174.607001,110.43966 174.469,111.697 L171.778,111.697 C171.885334,110.362993 172.410495,109.366337 173.3535,108.707 C174.296505,108.047663 175.488659,107.718 176.93,107.718 C180.134683,107.718 181.737,109.182319 181.737,112.111 L181.737,120 L179,120 L179,118.528 C178.141329,119.662672 176.914675,120.23 175.32,120.23 Z M175.987,118.229 C176.861004,118.229 177.573997,118.010502 178.126,117.5735 C178.678003,117.136498 178.954,116.542337 178.954,115.791 L178.954,114.595 L177.528,114.595 C175.212655,114.595 174.055,115.24666 174.055,116.55 C174.055,117.669339 174.698994,118.229 175.987,118.229 Z M184.934,120 L184.934,107.971 L187.717,107.971 L187.717,109.88 C188.023668,109.25133 188.51433,108.733835 189.189,108.3275 C189.86367,107.921165 190.668662,107.718 191.604,107.718 C192.876673,107.718 193.880996,108.105163 194.617,108.8795 C195.353004,109.653837 195.721,110.838325 195.721,112.433 L195.721,120 L192.938,120 L192.938,112.686 C192.938,111.781329 192.746335,111.114335 192.363,110.685 C191.979665,110.255665 191.374004,110.041 190.546,110.041 C189.717996,110.041 189.039503,110.290164 188.5105,110.7885 C187.981497,111.286836 187.717,111.995995 187.717,112.916 L187.717,120 L184.934,120 Z M200.252,124.117 L202.437,118.781 L197.676,107.971 L200.689,107.971 L203.886,115.722 L206.83,107.971 L209.544,107.971 L202.989,124.117 L200.252,124.117 Z M220.791,123.404 L227.714,102.152 L230.083,102.152 L223.137,123.404 L220.791,123.404 Z" id="friends5"></path>
            </g>
        </g>
    </g>
</svg>