<?xml version="1.0" encoding="UTF-8"?>
<svg width="214px" height="23px" viewBox="0 0 214 23" version="1.1" xmlns="http://www.w3.org/2000/svg" xmlns:xlink="http://www.w3.org/1999/xlink">
    <!-- Generator: Sketch 52.3 (67297) - http://www.bohemiancoding.com/sketch -->
    <title>friends3</title>
    <desc>Created with Sketch.</desc>
    <g id="Page-1" stroke="none" stroke-width="1" fill="none" fill-rule="evenodd">
        <g id="Home---Real-Friends" transform="translate(-741.000000, -684.000000)" fill="#000000">
            <g id="Group-4" transform="translate(740.000000, 628.000000)">
                <path d="M4.945,71.585 L6.739,71.585 C8.54834238,71.585 9.90916211,71.0905049 10.8215,70.1015 C11.7338379,69.1124951 12.19,67.6903426 12.19,65.835 L12.19,65.651 C12.19,61.8636477 10.3653516,59.97 6.716,59.97 L4.945,59.97 L4.945,71.585 Z M1.886,74 L1.886,57.555 L6.877,57.555 C9.66768062,57.555 11.7836595,58.2794928 13.225,59.7285 C14.6663405,61.1775072 15.387,63.136321 15.387,65.605 L15.387,65.812 C15.387,68.2960124 14.658674,70.2816592 13.202,71.769 C11.745326,73.2563408 9.62168062,74 6.831,74 L1.886,74 Z M23.368,74.23 C21.573991,74.23 20.1096723,73.6780055 18.975,72.574 C17.8403277,71.4699945 17.273,69.982676 17.273,68.112 L17.273,67.928 C17.273,66.0879908 17.8364944,64.5930058 18.9635,63.443 C20.0905056,62.2929942 21.5203247,61.718 23.253,61.718 C24.8783415,61.718 26.2314946,62.2239949 27.3125,63.236 C28.3935054,64.2480051 28.934,65.7659899 28.934,67.79 L28.934,68.595 L20.125,68.595 C20.1710002,69.7450058 20.4776638,70.6266636 21.045,71.24 C21.6123362,71.8533364 22.4096615,72.16 23.437,72.16 C25.0623415,72.16 25.9823323,71.5466728 26.197,70.32 L28.888,70.32 C28.6886657,71.5773396 28.1060048,72.54333 27.14,73.218 C26.1739952,73.89267 24.9166744,74.23 23.368,74.23 Z M20.171,66.732 L26.174,66.732 C26.0359993,64.7386567 25.0623424,63.742 23.253,63.742 C22.4249959,63.742 21.7388361,64.0064974 21.1945,64.5355 C20.6501639,65.0645026 20.3090007,65.796662 20.171,66.732 Z M31.901,74 L31.901,64.064 L30.268,64.064 L30.268,61.971 L31.901,61.971 L31.901,60.361 C31.901,59.0423267 32.2536631,58.0341702 32.959,57.3365 C33.6643369,56.6388298 34.6609936,56.29 35.949,56.29 C36.5316696,56.29 37.0606643,56.3666659 37.536,56.52 L37.536,58.682 C37.1526647,58.5439993 36.7310023,58.475 36.271,58.475 C35.2129947,58.475 34.684,59.0653274 34.684,60.246 L34.684,61.971 L37.421,61.971 L37.421,64.064 L34.684,64.064 L34.684,74 L31.901,74 Z M46.966,74.207 C45.8619945,74.207 45.0033364,74.0460016 44.39,73.724 L44.39,71.332 C45.0800034,71.6080014 45.7853297,71.746 46.506,71.746 C48.1466749,71.746 48.967,70.810676 48.967,68.94 L48.967,57.555 L52.049,57.555 L52.049,69.009 C52.049,70.7416753 51.5966712,72.0411623 50.692,72.9075 C49.7873288,73.7738377 48.5453412,74.207 46.966,74.207 Z M58.558,74.23 C57.3773274,74.23 56.4113371,73.9348363 55.66,73.3445 C54.9086629,72.7541637 54.533,71.861006 54.533,70.665 C54.533,69.3463267 55.0926611,68.3803364 56.212,67.767 C57.3313389,67.1536636 58.826324,66.847 60.697,66.847 L62.192,66.847 L62.192,66.226 C62.192,65.3979959 62.0271683,64.788502 61.6975,64.3975 C61.3678317,64.006498 60.8043373,63.811 60.007,63.811 C58.6116597,63.811 57.8450007,64.4396604 57.707,65.697 L55.016,65.697 C55.1233339,64.3629933 55.6484953,63.3663366 56.5915,62.707 C57.5345047,62.0476634 58.7266595,61.718 60.168,61.718 C63.3726827,61.718 64.975,63.1823187 64.975,66.111 L64.975,74 L62.238,74 L62.238,72.528 C61.379329,73.6626723 60.1526746,74.23 58.558,74.23 Z M59.225,72.229 C60.0990044,72.229 60.8119972,72.0105022 61.364,71.5735 C61.9160028,71.1364978 62.192,70.5423371 62.192,69.791 L62.192,68.595 L60.766,68.595 C58.4506551,68.595 57.293,69.2466601 57.293,70.55 C57.293,71.6693389 57.9369936,72.229 59.225,72.229 Z M68.172,74 L68.172,61.971 L70.955,61.971 L70.955,63.811 C71.2616682,63.212997 71.7369968,62.7146687 72.381,62.316 C73.0250032,61.9173313 73.7686624,61.718 74.612,61.718 C76.2986751,61.718 77.4333304,62.4386595 78.016,63.88 C78.4606689,63.1746631 79.0509963,62.6380018 79.787,62.27 C80.5230037,61.9019982 81.2896627,61.718 82.087,61.718 C83.2676726,61.718 84.2298296,62.1051628 84.9735,62.8795 C85.7171704,63.6538372 86.089,64.8229922 86.089,66.387 L86.089,74 L83.306,74 L83.306,66.571 C83.306,64.8843249 82.5930071,64.041 81.167,64.041 C80.4309963,64.041 79.8061692,64.2824976 79.2925,64.7655 C78.7788308,65.2485024 78.522,65.9269956 78.522,66.801 L78.522,74 L75.739,74 L75.739,66.571 C75.739,64.8843249 75.0260071,64.041 73.6,64.041 C72.8639963,64.041 72.2391692,64.2824976 71.7255,64.7655 C71.2118308,65.2485024 70.955,65.9269956 70.955,66.801 L70.955,74 L68.172,74 Z M98.44,77.404 L105.363,56.152 L107.732,56.152 L100.786,77.404 L98.44,77.404 Z M126.431,74 L126.431,57.555 L132.319,57.555 C135.907018,57.555 137.701,58.9809857 137.701,61.833 L137.701,61.925 C137.701,63.719009 136.834675,64.8843306 135.102,65.421 C136.221339,65.6663346 137.049331,66.1033302 137.586,66.732 C138.122669,67.3606698 138.391,68.2193279 138.391,69.308 L138.391,69.4 C138.391,70.9180076 137.908005,72.0641628 136.942,72.8385 C135.975995,73.6128372 134.580676,74 132.756,74 L126.431,74 Z M129.421,71.815 L132.388,71.815 C134.381343,71.815 135.378,70.9410087 135.378,69.193 L135.378,69.101 C135.378,68.242329 135.121169,67.6021688 134.6075,67.1805 C134.093831,66.7588312 133.285006,66.548 132.181,66.548 L129.421,66.548 L129.421,71.815 Z M129.421,64.478 L131.951,64.478 C132.947672,64.478 133.664498,64.2863353 134.1015,63.903 C134.538502,63.5196647 134.757,62.9063376 134.757,62.063 L134.757,61.971 C134.757,61.1889961 134.527002,60.6216684 134.067,60.269 C133.606998,59.9163316 132.886338,59.74 131.905,59.74 L129.421,59.74 L129.421,64.478 Z M146.418,72.068 C147.445338,72.068 148.254164,71.7115036 148.8445,70.9985 C149.434836,70.2854964 149.73,69.3080062 149.73,68.066 L149.73,67.905 C149.73,66.6629938 149.434836,65.6855036 148.8445,64.9725 C148.254164,64.2594964 147.445338,63.903 146.418,63.903 C145.375328,63.903 144.558836,64.2556631 143.9685,64.961 C143.378164,65.6663369 143.083,66.6399938 143.083,67.882 L143.083,68.066 C143.083,69.3080062 143.378164,70.2854964 143.9685,70.9985 C144.558836,71.7115036 145.375328,72.068 146.418,72.068 Z M150.834,72.528 C149.668661,73.6626723 148.189009,74.23 146.395,74.23 C144.600991,74.23 143.125172,73.6626723 141.9675,72.528 C140.809828,71.3933277 140.231,69.9213424 140.231,68.112 L140.231,67.928 C140.231,66.0879908 140.813661,64.5930058 141.979,63.443 C143.144339,62.2929942 144.623991,61.718 146.418,61.718 C148.196676,61.718 149.668661,62.2853277 150.834,63.42 C151.999339,64.5546723 152.582,66.0343242 152.582,67.859 L152.582,68.043 C152.582,69.8983426 151.999339,71.3933277 150.834,72.528 Z M155.089,74 L155.089,61.971 L157.872,61.971 L157.872,63.811 C158.178668,63.212997 158.653997,62.7146687 159.298,62.316 C159.942003,61.9173313 160.685662,61.718 161.529,61.718 C163.215675,61.718 164.35033,62.4386595 164.933,63.88 C165.377669,63.1746631 165.967996,62.6380018 166.704,62.27 C167.440004,61.9019982 168.206663,61.718 169.004,61.718 C170.184673,61.718 171.14683,62.1051628 171.8905,62.8795 C172.63417,63.6538372 173.006,64.8229922 173.006,66.387 L173.006,74 L170.223,74 L170.223,66.571 C170.223,64.8843249 169.510007,64.041 168.084,64.041 C167.347996,64.041 166.723169,64.2824976 166.2095,64.7655 C165.695831,65.2485024 165.439,65.9269956 165.439,66.801 L165.439,74 L162.656,74 L162.656,66.571 C162.656,64.8843249 161.943007,64.041 160.517,64.041 C159.780996,64.041 159.156169,64.2824976 158.6425,64.7655 C158.128831,65.2485024 157.872,65.9269956 157.872,66.801 L157.872,74 L155.089,74 Z M182.919,74.23 C181.998995,74.23 181.197837,74.0306687 180.5155,73.632 C179.833163,73.2333313 179.323335,72.7120032 178.986,72.068 L178.986,74 L176.203,74 L176.203,56.405 L178.986,56.405 L178.986,63.903 C179.338668,63.2896636 179.871496,62.7721688 180.5845,62.3505 C181.297504,61.9288312 182.075662,61.718 182.919,61.718 C184.467674,61.718 185.744162,62.2661612 186.7485,63.3625 C187.752838,64.4588388 188.255,65.9499906 188.255,67.836 L188.255,68.02 C188.255,69.9213428 187.760505,71.4316611 186.7715,72.551 C185.782495,73.6703389 184.498341,74.23 182.919,74.23 Z M182.229,72.022 C183.256338,72.022 184.042164,71.68467 184.5865,71.01 C185.130836,70.33533 185.403,69.3540064 185.403,68.066 L185.403,67.882 C185.403,66.5939936 185.107836,65.6088367 184.5175,64.9265 C183.927164,64.2441633 183.156671,63.903 182.206,63.903 C181.209328,63.903 180.40817,64.2441633 179.8025,64.9265 C179.19683,65.6088367 178.894,66.5939936 178.894,67.882 L178.894,68.066 C178.894,69.3693399 179.189164,70.3544967 179.7795,71.0215 C180.369836,71.6885033 181.186328,72.022 182.229,72.022 Z M193.913,74.23 C192.732327,74.23 191.766337,73.9348363 191.015,73.3445 C190.263663,72.7541637 189.888,71.861006 189.888,70.665 C189.888,69.3463267 190.447661,68.3803364 191.567,67.767 C192.686339,67.1536636 194.181324,66.847 196.052,66.847 L197.547,66.847 L197.547,66.226 C197.547,65.3979959 197.382168,64.788502 197.0525,64.3975 C196.722832,64.006498 196.159337,63.811 195.362,63.811 C193.96666,63.811 193.200001,64.4396604 193.062,65.697 L190.371,65.697 C190.478334,64.3629933 191.003495,63.3663366 191.9465,62.707 C192.889505,62.0476634 194.081659,61.718 195.523,61.718 C198.727683,61.718 200.33,63.1823187 200.33,66.111 L200.33,74 L197.593,74 L197.593,72.528 C196.734329,73.6626723 195.507675,74.23 193.913,74.23 Z M194.58,72.229 C195.454004,72.229 196.166997,72.0105022 196.719,71.5735 C197.271003,71.1364978 197.547,70.5423371 197.547,69.791 L197.547,68.595 L196.121,68.595 C193.805655,68.595 192.648,69.2466601 192.648,70.55 C192.648,71.6693389 193.291994,72.229 194.58,72.229 Z M204.861,78.117 L207.046,72.781 L202.285,61.971 L205.298,61.971 L208.495,69.722 L211.439,61.971 L214.153,61.971 L207.598,78.117 L204.861,78.117 Z" id="friends3"></path>
            </g>
        </g>
    </g>
</svg>