<?xml version="1.0" encoding="UTF-8"?>
<svg width="178px" height="19px" viewBox="0 0 178 19" version="1.1" xmlns="http://www.w3.org/2000/svg" xmlns:xlink="http://www.w3.org/1999/xlink">
    <!-- Generator: Sketch 52.3 (67297) - http://www.bohemiancoding.com/sketch -->
    <title>friends6</title>
    <desc>Created with Sketch.</desc>
    <g id="Page-1" stroke="none" stroke-width="1" fill="none" fill-rule="evenodd">
        <g id="Home---Real-Friends" transform="translate(-742.000000, -753.000000)" fill="#000000">
            <g id="Group-4" transform="translate(740.000000, 628.000000)">
                <path d="M2.36,143 L2.36,126.555 L12.641,126.555 L12.641,128.97 L5.419,128.97 L5.419,133.478 L11.215,133.478 L11.215,135.778 L5.419,135.778 L5.419,140.585 L13.032,140.585 L13.032,143 L2.36,143 Z M18.713,143 L14.32,130.971 L17.31,130.971 L20.461,140.148 L23.566,130.971 L26.303,130.971 L21.956,143 L18.713,143 Z M28.442,143 L28.442,130.971 L31.225,130.971 L31.225,143 L28.442,143 Z M30.972,128.533 C30.6499984,128.839668 30.2590023,128.993 29.799,128.993 C29.3389977,128.993 28.9480016,128.839668 28.626,128.533 C28.3039984,128.226332 28.143,127.850669 28.143,127.406 C28.143,126.945998 28.3039984,126.562668 28.626,126.256 C28.9480016,125.949332 29.3389977,125.796 29.799,125.796 C30.2590023,125.796 30.6499984,125.949332 30.972,126.256 C31.2940016,126.562668 31.455,126.945998 31.455,127.406 C31.455,127.850669 31.2940016,128.226332 30.972,128.533 Z M39.114,143.23 C37.5499922,143.23 36.2773382,142.697172 35.296,141.6315 C34.3146618,140.565828 33.824,139.082343 33.824,137.181 L33.824,136.997 C33.824,135.095657 34.3299949,133.573839 35.342,132.4315 C36.3540051,131.289161 37.6496588,130.718 39.229,130.718 C41.0076756,130.718 42.2879961,131.41566 43.07,132.811 L43.07,125.405 L45.853,125.405 L45.853,143 L43.07,143 L43.07,140.976 C42.732665,141.60467 42.199837,142.137498 41.4715,142.5745 C40.743163,143.011502 39.9573375,143.23 39.114,143.23 Z M39.804,141.022 C40.8160051,141.022 41.6286636,140.68467 42.242,140.01 C42.8553364,139.33533 43.162,138.34634 43.162,137.043 L43.162,136.859 C43.162,135.55566 42.8783362,134.570503 42.311,133.9035 C41.7436638,133.236497 40.9463385,132.903 39.919,132.903 C38.8916615,132.903 38.0943362,133.25183 37.527,133.9495 C36.9596638,134.64717 36.676,135.639994 36.676,136.928 L36.676,137.112 C36.676,138.384673 36.9634971,139.354497 37.5385,140.0215 C38.1135029,140.688503 38.868662,141.022 39.804,141.022 Z M52.316,143.23 C51.1353274,143.23 50.1693371,142.934836 49.418,142.3445 C48.6666629,141.754164 48.291,140.861006 48.291,139.665 C48.291,138.346327 48.8506611,137.380336 49.97,136.767 C51.0893389,136.153664 52.584324,135.847 54.455,135.847 L55.95,135.847 L55.95,135.226 C55.95,134.397996 55.7851683,133.788502 55.4555,133.3975 C55.1258317,133.006498 54.5623373,132.811 53.765,132.811 C52.3696597,132.811 51.6030007,133.43966 51.465,134.697 L48.774,134.697 C48.8813339,133.362993 49.4064953,132.366337 50.3495,131.707 C51.2925047,131.047663 52.4846595,130.718 53.926,130.718 C57.1306827,130.718 58.733,132.182319 58.733,135.111 L58.733,143 L55.996,143 L55.996,141.528 C55.137329,142.662672 53.9106746,143.23 52.316,143.23 Z M52.983,141.229 C53.8570044,141.229 54.5699972,141.010502 55.122,140.5735 C55.6740028,140.136498 55.95,139.542337 55.95,138.791 L55.95,137.595 L54.524,137.595 C52.2086551,137.595 51.051,138.24666 51.051,139.55 C51.051,140.669339 51.6949936,141.229 52.983,141.229 Z M66.024,143.207 C64.8433274,143.207 63.9425031,142.900336 63.3215,142.287 C62.7004969,141.673664 62.39,140.792006 62.39,139.642 L62.39,133.064 L60.78,133.064 L60.78,130.971 L62.39,130.971 L62.39,128.326 L65.173,128.326 L65.173,130.971 L67.818,130.971 L67.818,133.064 L65.173,133.064 L65.173,139.389 C65.173,140.416338 65.6329954,140.93 66.553,140.93 C67.0896694,140.93 67.5419982,140.853334 67.91,140.7 L67.91,142.908 C67.3733306,143.107334 66.7446703,143.207 66.024,143.207 Z M70.486,143 L70.486,130.971 L73.269,130.971 L73.269,143 L70.486,143 Z M73.016,128.533 C72.6939984,128.839668 72.3030023,128.993 71.843,128.993 C71.3829977,128.993 70.9920016,128.839668 70.67,128.533 C70.3479984,128.226332 70.187,127.850669 70.187,127.406 C70.187,126.945998 70.3479984,126.562668 70.67,126.256 C70.9920016,125.949332 71.3829977,125.796 71.843,125.796 C72.3030023,125.796 72.6939984,125.949332 73.016,126.256 C73.3380016,126.562668 73.499,126.945998 73.499,127.406 C73.499,127.850669 73.3380016,128.226332 73.016,128.533 Z M82.032,141.068 C83.0593385,141.068 83.8681637,140.711504 84.4585,139.9985 C85.0488363,139.285496 85.344,138.308006 85.344,137.066 L85.344,136.905 C85.344,135.662994 85.0488363,134.685504 84.4585,133.9725 C83.8681637,133.259496 83.0593385,132.903 82.032,132.903 C80.9893281,132.903 80.1728363,133.255663 79.5825,133.961 C78.9921637,134.666337 78.697,135.639994 78.697,136.882 L78.697,137.066 C78.697,138.308006 78.9921637,139.285496 79.5825,139.9985 C80.1728363,140.711504 80.9893281,141.068 82.032,141.068 Z M86.448,141.528 C85.2826608,142.662672 83.803009,143.23 82.009,143.23 C80.214991,143.23 78.7391725,142.662672 77.5815,141.528 C76.4238275,140.393328 75.845,138.921342 75.845,137.112 L75.845,136.928 C75.845,135.087991 76.4276608,133.593006 77.593,132.443 C78.7583392,131.292994 80.237991,130.718 82.032,130.718 C83.8106756,130.718 85.2826608,131.285328 86.448,132.42 C87.6133392,133.554672 88.196,135.034324 88.196,136.859 L88.196,137.043 C88.196,138.898343 87.6133392,140.393328 86.448,141.528 Z M90.703,143 L90.703,130.971 L93.486,130.971 L93.486,132.88 C93.7926682,132.25133 94.28333,131.733835 94.958,131.3275 C95.63267,130.921165 96.437662,130.718 97.373,130.718 C98.645673,130.718 99.6499963,131.105163 100.386,131.8795 C101.122004,132.653837 101.49,133.838325 101.49,135.433 L101.49,143 L98.707,143 L98.707,135.686 C98.707,134.781329 98.5153353,134.114335 98.132,133.685 C97.7486648,133.255665 97.1430041,133.041 96.315,133.041 C95.4869959,133.041 94.8085026,133.290164 94.2795,133.7885 C93.7504974,134.286836 93.486,134.995995 93.486,135.916 L93.486,143 L90.703,143 Z M110.391,143 L110.391,126.555 L113.45,126.555 L113.45,133.547 L120.833,133.547 L120.833,126.555 L123.915,126.555 L123.915,143 L120.833,143 L120.833,136.008 L113.45,136.008 L113.45,143 L110.391,143 Z M132.724,143.23 C130.929991,143.23 129.465672,142.678006 128.331,141.574 C127.196328,140.469994 126.629,138.982676 126.629,137.112 L126.629,136.928 C126.629,135.087991 127.192494,133.593006 128.3195,132.443 C129.446506,131.292994 130.876325,130.718 132.609,130.718 C134.234341,130.718 135.587495,131.223995 136.6685,132.236 C137.749505,133.248005 138.29,134.76599 138.29,136.79 L138.29,137.595 L129.481,137.595 C129.527,138.745006 129.833664,139.626664 130.401,140.24 C130.968336,140.853336 131.765662,141.16 132.793,141.16 C134.418341,141.16 135.338332,140.546673 135.553,139.32 L138.244,139.32 C138.044666,140.57734 137.462005,141.54333 136.496,142.218 C135.529995,142.89267 134.272674,143.23 132.724,143.23 Z M129.527,135.732 L135.53,135.732 C135.391999,133.738657 134.418342,132.742 132.609,132.742 C131.780996,132.742 131.094836,133.006497 130.5505,133.5355 C130.006164,134.064503 129.665001,134.796662 129.527,135.732 Z M143.925,143.23 C142.744327,143.23 141.778337,142.934836 141.027,142.3445 C140.275663,141.754164 139.9,140.861006 139.9,139.665 C139.9,138.346327 140.459661,137.380336 141.579,136.767 C142.698339,136.153664 144.193324,135.847 146.064,135.847 L147.559,135.847 L147.559,135.226 C147.559,134.397996 147.394168,133.788502 147.0645,133.3975 C146.734832,133.006498 146.171337,132.811 145.374,132.811 C143.97866,132.811 143.212001,133.43966 143.074,134.697 L140.383,134.697 C140.490334,133.362993 141.015495,132.366337 141.9585,131.707 C142.901505,131.047663 144.093659,130.718 145.535,130.718 C148.739683,130.718 150.342,132.182319 150.342,135.111 L150.342,143 L147.605,143 L147.605,141.528 C146.746329,142.662672 145.519675,143.23 143.925,143.23 Z M144.592,141.229 C145.466004,141.229 146.178997,141.010502 146.731,140.5735 C147.283003,140.136498 147.559,139.542337 147.559,138.791 L147.559,137.595 L146.133,137.595 C143.817655,137.595 142.66,138.24666 142.66,139.55 C142.66,140.669339 143.303994,141.229 144.592,141.229 Z M153.608,143 L153.608,125.405 L156.391,125.405 L156.391,143 L153.608,143 Z M163.866,143.207 C162.685327,143.207 161.784503,142.900336 161.1635,142.287 C160.542497,141.673664 160.232,140.792006 160.232,139.642 L160.232,133.064 L158.622,133.064 L158.622,130.971 L160.232,130.971 L160.232,128.326 L163.015,128.326 L163.015,130.971 L165.66,130.971 L165.66,133.064 L163.015,133.064 L163.015,139.389 C163.015,140.416338 163.474995,140.93 164.395,140.93 C164.931669,140.93 165.383998,140.853334 165.752,140.7 L165.752,142.908 C165.215331,143.107334 164.58667,143.207 163.866,143.207 Z M168.259,143 L168.259,125.405 L171.042,125.405 L171.042,132.88 C171.348668,132.25133 171.83933,131.733835 172.514,131.3275 C173.18867,130.921165 173.993662,130.718 174.929,130.718 C176.201673,130.718 177.205996,131.105163 177.942,131.8795 C178.678004,132.653837 179.046,133.838325 179.046,135.433 L179.046,143 L176.263,143 L176.263,135.686 C176.263,134.781329 176.071335,134.114335 175.688,133.685 C175.304665,133.255665 174.699004,133.041 173.871,133.041 C173.042996,133.041 172.364503,133.290164 171.8355,133.7885 C171.306497,134.286836 171.042,134.995995 171.042,135.916 L171.042,143 L168.259,143 Z" id="friends6"></path>
            </g>
        </g>
    </g>
</svg>