<?xml version="1.0" encoding="UTF-8"?>
<svg width="250px" height="23px" viewBox="0 0 250 23" version="1.1" xmlns="http://www.w3.org/2000/svg" xmlns:xlink="http://www.w3.org/1999/xlink">
    <!-- Generator: Sketch 52.3 (67297) - http://www.bohemiancoding.com/sketch -->
    <title>friends4</title>
    <desc>Created with Sketch.</desc>
    <g id="Page-1" stroke="none" stroke-width="1" fill="none" fill-rule="evenodd">
        <g id="Home---Real-Friends" transform="translate(-740.000000, -707.000000)" fill="#000000">
            <g id="Group-4" transform="translate(740.000000, 628.000000)">
                <path d="M7.475,97.23 C5.3283226,97.23 3.722172,96.7546714 2.6565,95.804 C1.59082801,94.8533286 0.99666728,93.5500083 0.874,91.894 L3.818,91.894 C3.94066728,92.8600048 4.26266406,93.6074974 4.784,94.1365 C5.30533594,94.6655026 6.20232697,94.93 7.475,94.93 C8.3950046,94.93 9.14249713,94.696169 9.7175,94.2285 C10.2925029,93.760831 10.58,93.1513371 10.58,92.4 C10.58,91.6333295 10.3423357,91.0736684 9.867,90.721 C9.39166429,90.3683316 8.48700667,90.0846677 7.153,89.87 C5.11365647,89.5939986 3.6378379,89.0995036 2.7255,88.3865 C1.8131621,87.6734964 1.357,86.5656742 1.357,85.063 C1.357,83.6983265 1.88599471,82.5713378 2.944,81.682 C4.00200529,80.7926622 5.38199149,80.348 7.084,80.348 C8.86267556,80.348 10.2656615,80.750496 11.293,81.5555 C12.3203385,82.360504 12.9106659,83.5449922 13.064,85.109 L10.258,85.109 C10.1046659,84.250329 9.77500253,83.625502 9.269,83.2345 C8.76299747,82.843498 8.03467142,82.648 7.084,82.648 C6.17932881,82.648 5.48166912,82.843498 4.991,83.2345 C4.50033088,83.625502 4.255,84.1506634 4.255,84.81 C4.255,85.5153369 4.4811644,86.0443316 4.9335,86.397 C5.38583559,86.7496684 6.29432651,87.0256657 7.659,87.225 C9.69834353,87.5010014 11.185662,87.9954964 12.121,88.7085 C13.056338,89.4215036 13.524,90.5676588 13.524,92.147 C13.524,93.603674 12.9643389,94.8149952 11.845,95.781 C10.7256611,96.7470048 9.26900897,97.23 7.475,97.23 Z M19.412,97.23 C18.2313274,97.23 17.2653371,96.9348363 16.514,96.3445 C15.7626629,95.7541637 15.387,94.861006 15.387,93.665 C15.387,92.3463267 15.9466611,91.3803364 17.066,90.767 C18.1853389,90.1536636 19.680324,89.847 21.551,89.847 L23.046,89.847 L23.046,89.226 C23.046,88.3979959 22.8811683,87.788502 22.5515,87.3975 C22.2218317,87.006498 21.6583373,86.811 20.861,86.811 C19.4656597,86.811 18.6990007,87.4396604 18.561,88.697 L15.87,88.697 C15.9773339,87.3629933 16.5024953,86.3663366 17.4455,85.707 C18.3885047,85.0476634 19.5806595,84.718 21.022,84.718 C24.2266827,84.718 25.829,86.1823187 25.829,89.111 L25.829,97 L23.092,97 L23.092,95.528 C22.233329,96.6626723 21.0066746,97.23 19.412,97.23 Z M20.079,95.229 C20.9530044,95.229 21.6659972,95.0105022 22.218,94.5735 C22.7700028,94.1364978 23.046,93.5423371 23.046,92.791 L23.046,91.595 L21.62,91.595 C19.3046551,91.595 18.147,92.2466601 18.147,93.55 C18.147,94.6693389 18.7909936,95.229 20.079,95.229 Z M29.026,101.117 L29.026,84.971 L31.809,84.971 L31.809,86.903 C32.1616684,86.2896636 32.6944964,85.7721688 33.4075,85.3505 C34.1205036,84.9288312 34.8986624,84.718 35.742,84.718 C37.2906744,84.718 38.5671616,85.2661612 39.5715,86.3625 C40.5758384,87.4588388 41.078,88.9499906 41.078,90.836 L41.078,91.02 C41.078,92.9213428 40.5835049,94.4316611 39.5945,95.551 C38.6054951,96.6703389 37.3213412,97.23 35.742,97.23 C34.8373288,97.23 34.0400034,97.034502 33.35,96.6435 C32.6599966,96.252498 32.146335,95.7426698 31.809,95.114 L31.809,101.117 L29.026,101.117 Z M35.052,95.022 C36.0793385,95.022 36.8651639,94.68467 37.4095,94.01 C37.9538361,93.33533 38.226,92.3540064 38.226,91.066 L38.226,90.882 C38.226,89.5939936 37.9308363,88.6088367 37.3405,87.9265 C36.7501637,87.2441633 35.9796714,86.903 35.029,86.903 C34.0323283,86.903 33.2311697,87.2441633 32.6255,87.9265 C32.0198303,88.6088367 31.717,89.5939936 31.717,90.882 L31.717,91.066 C31.717,92.3693399 32.0121637,93.3544967 32.6025,94.0215 C33.1928363,94.6885033 34.0093281,95.022 35.052,95.022 Z M43.585,101.117 L43.585,84.971 L46.368,84.971 L46.368,86.903 C46.7206684,86.2896636 47.2534964,85.7721688 47.9665,85.3505 C48.6795036,84.9288312 49.4576625,84.718 50.301,84.718 C51.8496744,84.718 53.1261616,85.2661612 54.1305,86.3625 C55.1348384,87.4588388 55.637,88.9499906 55.637,90.836 L55.637,91.02 C55.637,92.9213428 55.1425049,94.4316611 54.1535,95.551 C53.1644951,96.6703389 51.8803412,97.23 50.301,97.23 C49.3963288,97.23 48.5990034,97.034502 47.909,96.6435 C47.2189965,96.252498 46.705335,95.7426698 46.368,95.114 L46.368,101.117 L43.585,101.117 Z M49.611,95.022 C50.6383385,95.022 51.4241639,94.68467 51.9685,94.01 C52.5128361,93.33533 52.785,92.3540064 52.785,91.066 L52.785,90.882 C52.785,89.5939936 52.4898363,88.6088367 51.8995,87.9265 C51.3091637,87.2441633 50.5386714,86.903 49.588,86.903 C48.5913284,86.903 47.7901697,87.2441633 47.1845,87.9265 C46.5788303,88.6088367 46.276,89.5939936 46.276,90.882 L46.276,91.066 C46.276,92.3693399 46.5711637,93.3544967 47.1615,94.0215 C47.7518363,94.6885033 48.5683281,95.022 49.611,95.022 Z M58.144,97 L58.144,79.405 L60.927,79.405 L60.927,86.88 C61.2336682,86.2513302 61.72433,85.7338354 62.399,85.3275 C63.07367,84.9211646 63.878662,84.718 64.814,84.718 C66.086673,84.718 67.0909963,85.1051628 67.827,85.8795 C68.5630037,86.6538372 68.931,87.8383254 68.931,89.433 L68.931,97 L66.148,97 L66.148,89.686 C66.148,88.7813288 65.9563352,88.1143355 65.573,87.685 C65.1896647,87.2556645 64.5840041,87.041 63.756,87.041 C62.9279959,87.041 62.2495026,87.2901642 61.7205,87.7885 C61.1914974,88.2868358 60.927,88.9959954 60.927,89.916 L60.927,97 L58.144,97 Z M72.197,97 L72.197,84.971 L74.98,84.971 L74.98,97 L72.197,97 Z M74.727,82.533 C74.4049984,82.8396682 74.0140023,82.993 73.554,82.993 C73.0939977,82.993 72.7030016,82.8396682 72.381,82.533 C72.0589984,82.2263318 71.898,81.8506689 71.898,81.406 C71.898,80.9459977 72.0589984,80.5626682 72.381,80.256 C72.7030016,79.9493318 73.0939977,79.796 73.554,79.796 C74.0140023,79.796 74.4049984,79.9493318 74.727,80.256 C75.0490016,80.5626682 75.21,80.9459977 75.21,81.406 C75.21,81.8506689 75.0490016,82.2263318 74.727,82.533 Z M78.361,97 L78.361,84.971 L81.144,84.971 L81.144,87.225 C81.9413373,85.614992 83.2446576,84.8023334 85.054,84.787 L85.054,87.386 C83.7506602,87.4013334 82.7731699,87.6619975 82.1215,88.168 C81.4698301,88.6740025 81.144,89.5326606 81.144,90.744 L81.144,97 L78.361,97 Z M92.782,97.23 C90.987991,97.23 89.5236723,96.6780055 88.389,95.574 C87.2543277,94.4699945 86.687,92.982676 86.687,91.112 L86.687,90.928 C86.687,89.0879908 87.2504944,87.5930058 88.3775,86.443 C89.5045056,85.2929942 90.9343247,84.718 92.667,84.718 C94.2923415,84.718 95.6454946,85.2239949 96.7265,86.236 C97.8075054,87.2480051 98.348,88.7659899 98.348,90.79 L98.348,91.595 L89.539,91.595 C89.5850002,92.7450058 89.8916638,93.6266636 90.459,94.24 C91.0263362,94.8533364 91.8236615,95.16 92.851,95.16 C94.4763415,95.16 95.3963323,94.5466728 95.611,93.32 L98.302,93.32 C98.1026657,94.5773396 97.5200048,95.54333 96.554,96.218 C95.5879952,96.89267 94.3306744,97.23 92.782,97.23 Z M89.585,89.732 L95.588,89.732 C95.4499993,87.7386567 94.4763424,86.742 92.667,86.742 C91.8389959,86.742 91.1528361,87.0064974 90.6085,87.5355 C90.0641639,88.0645026 89.7230007,88.796662 89.585,89.732 Z M109.986,100.404 L116.909,79.152 L119.278,79.152 L112.332,100.404 L109.986,100.404 Z M132.503,97 L132.503,80.555 L136.597,80.555 L140.921,91.779 L145.153,80.555 L149.201,80.555 L149.201,97 L146.142,97 L146.142,84.58 L141.243,97 L140.254,97 L135.263,84.58 L135.263,97 L132.503,97 Z M158.125,95.068 C159.152338,95.068 159.961164,94.7115036 160.5515,93.9985 C161.141836,93.2854964 161.437,92.3080062 161.437,91.066 L161.437,90.905 C161.437,89.6629938 161.141836,88.6855036 160.5515,87.9725 C159.961164,87.2594964 159.152338,86.903 158.125,86.903 C157.082328,86.903 156.265836,87.2556631 155.6755,87.961 C155.085164,88.6663369 154.79,89.6399938 154.79,90.882 L154.79,91.066 C154.79,92.3080062 155.085164,93.2854964 155.6755,93.9985 C156.265836,94.7115036 157.082328,95.068 158.125,95.068 Z M162.541,95.528 C161.375661,96.6626723 159.896009,97.23 158.102,97.23 C156.307991,97.23 154.832172,96.6626723 153.6745,95.528 C152.516828,94.3933277 151.938,92.9213424 151.938,91.112 L151.938,90.928 C151.938,89.0879908 152.520661,87.5930058 153.686,86.443 C154.851339,85.2929942 156.330991,84.718 158.125,84.718 C159.903676,84.718 161.375661,85.2853277 162.541,86.42 C163.706339,87.5546723 164.289,89.0343242 164.289,90.859 L164.289,91.043 C164.289,92.8983426 163.706339,94.3933277 162.541,95.528 Z M170.89,97.207 C169.709327,97.207 168.808503,96.9003364 168.1875,96.287 C167.566497,95.6736636 167.256,94.7920058 167.256,93.642 L167.256,87.064 L165.646,87.064 L165.646,84.971 L167.256,84.971 L167.256,82.326 L170.039,82.326 L170.039,84.971 L172.684,84.971 L172.684,87.064 L170.039,87.064 L170.039,93.389 C170.039,94.4163385 170.498995,94.93 171.419,94.93 C171.955669,94.93 172.407998,94.8533341 172.776,94.7 L172.776,96.908 C172.239331,97.1073343 171.61067,97.207 170.89,97.207 Z M180.665,95.068 C181.692338,95.068 182.501164,94.7115036 183.0915,93.9985 C183.681836,93.2854964 183.977,92.3080062 183.977,91.066 L183.977,90.905 C183.977,89.6629938 183.681836,88.6855036 183.0915,87.9725 C182.501164,87.2594964 181.692338,86.903 180.665,86.903 C179.622328,86.903 178.805836,87.2556631 178.2155,87.961 C177.625164,88.6663369 177.33,89.6399938 177.33,90.882 L177.33,91.066 C177.33,92.3080062 177.625164,93.2854964 178.2155,93.9985 C178.805836,94.7115036 179.622328,95.068 180.665,95.068 Z M185.081,95.528 C183.915661,96.6626723 182.436009,97.23 180.642,97.23 C178.847991,97.23 177.372172,96.6626723 176.2145,95.528 C175.056828,94.3933277 174.478,92.9213424 174.478,91.112 L174.478,90.928 C174.478,89.0879908 175.060661,87.5930058 176.226,86.443 C177.391339,85.2929942 178.870991,84.718 180.665,84.718 C182.443676,84.718 183.915661,85.2853277 185.081,86.42 C186.246339,87.5546723 186.829,89.0343242 186.829,90.859 L186.829,91.043 C186.829,92.8983426 186.246339,94.3933277 185.081,95.528 Z M189.336,97 L189.336,84.971 L192.119,84.971 L192.119,87.225 C192.916337,85.614992 194.219658,84.8023334 196.029,84.787 L196.029,87.386 C194.72566,87.4013334 193.74817,87.6619975 193.0965,88.168 C192.44483,88.6740025 192.119,89.5326606 192.119,90.744 L192.119,97 L189.336,97 Z M203.849,95.068 C204.876338,95.068 205.685164,94.7115036 206.2755,93.9985 C206.865836,93.2854964 207.161,92.3080062 207.161,91.066 L207.161,90.905 C207.161,89.6629938 206.865836,88.6855036 206.2755,87.9725 C205.685164,87.2594964 204.876338,86.903 203.849,86.903 C202.806328,86.903 201.989836,87.2556631 201.3995,87.961 C200.809164,88.6663369 200.514,89.6399938 200.514,90.882 L200.514,91.066 C200.514,92.3080062 200.809164,93.2854964 201.3995,93.9985 C201.989836,94.7115036 202.806328,95.068 203.849,95.068 Z M208.265,95.528 C207.099661,96.6626723 205.620009,97.23 203.826,97.23 C202.031991,97.23 200.556172,96.6626723 199.3985,95.528 C198.240828,94.3933277 197.662,92.9213424 197.662,91.112 L197.662,90.928 C197.662,89.0879908 198.244661,87.5930058 199.41,86.443 C200.575339,85.2929942 202.054991,84.718 203.849,84.718 C205.627676,84.718 207.099661,85.2853277 208.265,86.42 C209.430339,87.5546723 210.013,89.0343242 210.013,90.859 L210.013,91.043 C210.013,92.8983426 209.430339,94.3933277 208.265,95.528 Z M212.589,97 L212.589,79.405 L215.372,79.405 L215.372,97 L212.589,97 Z M221.904,97.23 C220.723327,97.23 219.757337,96.9348363 219.006,96.3445 C218.254663,95.7541637 217.879,94.861006 217.879,93.665 C217.879,92.3463267 218.438661,91.3803364 219.558,90.767 C220.677339,90.1536636 222.172324,89.847 224.043,89.847 L225.538,89.847 L225.538,89.226 C225.538,88.3979959 225.373168,87.788502 225.0435,87.3975 C224.713832,87.006498 224.150337,86.811 223.353,86.811 C221.95766,86.811 221.191001,87.4396604 221.053,88.697 L218.362,88.697 C218.469334,87.3629933 218.994495,86.3663366 219.9375,85.707 C220.880505,85.0476634 222.072659,84.718 223.514,84.718 C226.718683,84.718 228.321,86.1823187 228.321,89.111 L228.321,97 L225.584,97 L225.584,95.528 C224.725329,96.6626723 223.498675,97.23 221.904,97.23 Z M222.571,95.229 C223.445004,95.229 224.157997,95.0105022 224.71,94.5735 C225.262003,94.1364978 225.538,93.5423371 225.538,92.791 L225.538,91.595 L224.112,91.595 C221.796655,91.595 220.639,92.2466601 220.639,93.55 C220.639,94.6693389 221.282994,95.229 222.571,95.229 Z M240.672,100.404 L247.595,79.152 L249.964,79.152 L243.018,100.404 L240.672,100.404 Z" id="friends4"></path>
            </g>
        </g>
    </g>
</svg>