<?xml version="1.0" encoding="UTF-8"?>
<svg width="241px" height="67px" viewBox="0 0 241 67" version="1.1" xmlns="http://www.w3.org/2000/svg" xmlns:xlink="http://www.w3.org/1999/xlink">
    <!-- Generator: Sketch 52.3 (67297) - http://www.bohemiancoding.com/sketch -->
    <title>Made In California.</title>
    <desc>Created with Sketch.</desc>
    <g id="Page-1" stroke="none" stroke-width="1" fill="none" fill-rule="evenodd">
        <g id="Home---Dog-Walkers" transform="translate(-76.000000, -589.000000)" fill="#E4007F" fill-rule="nonzero">
            <g id="Made-In-California." transform="translate(76.000000, 589.000000)">
                <path d="M0,24.9742936 L5.273339,24.9742936 L5.273339,8.61182601 C5.273339,7.4750651 5.23909654,6.33830419 5.10212669,5.44267439 L5.23909654,5.44267439 C5.37606638,6.20051499 5.68424854,7.3372759 6.02667315,8.23290571 L12.0191039,24.9742936 L17.4294128,24.9742936 L23.3876011,8.23290571 C23.7300257,7.3372759 24.1066928,6.06272579 24.2436626,5.40822708 L24.34639,5.40822708 C24.2436626,6.44164609 24.1751777,7.578407 24.1751777,8.61182601 L24.1751777,24.9742936 L29.7909414,24.9742936 L29.7909414,0.516710444 L20.8879014,0.516710444 L15.6145624,15.4668388 C15.2721377,16.5347051 14.998198,17.4992295 14.8954707,18.3259647 L14.8269857,18.3259647 C14.7242584,17.4992295 14.4845611,16.5691524 14.1421365,15.5012861 L8.76607007,0.516710444 L0,0.516710444 L0,24.9742936 Z M40.7547549,25.4910032 C44.3844559,25.4910032 47.0553679,24.216453 48.1853691,22.0462731 C48.1853691,23.0796921 48.2880965,24.1475584 48.4250663,24.9742936 L54.2120423,24.9742936 C53.9381026,23.7686381 53.8011328,22.149615 53.8011328,19.9449878 L53.8011328,14.6056563 C53.8011328,9.61079772 50.8220386,7.233934 44.3159709,7.233934 C38.528995,7.233934 34.7280817,9.61079772 34.2829297,13.53779 L40.2753605,13.53779 C40.5150577,11.8154249 41.9189986,10.8853478 44.2817285,10.8853478 C46.6102159,10.8853478 47.9114294,11.8154249 47.9114294,13.7444738 L47.9114294,14.2611833 L41.5423316,14.8467874 C38.4947525,15.1568131 36.7826294,15.6735226 35.5841433,16.5002578 C34.3856571,17.3614403 33.7350504,18.6704377 33.7350504,20.2550135 C33.7350504,23.4930597 36.4402048,25.4910032 40.7547549,25.4910032 Z M42.9805149,21.9084839 C40.9602097,21.9084839 39.7274811,21.1506433 39.7274811,19.8760932 C39.7274811,18.5326485 40.7205125,17.8437025 43.3229396,17.5336768 L48.0483992,17.0514146 L48.0483992,18.1537282 C48.0483992,20.42725 45.9938515,21.9084839 42.9805149,21.9084839 Z M65.4653603,25.4910032 C68.6841517,25.4910032 71.2523363,24.1131111 72.5193074,21.8395893 L72.5193074,24.9742936 L78.135071,24.9742936 L78.135071,0 L72.2796101,0 L72.2796101,10.1964018 C70.9441541,8.23290571 68.7183941,7.233934 65.7393,7.233934 C60.5002034,7.233934 56.9389874,10.8853478 56.9389874,16.3624686 C56.9389874,21.805142 60.4317185,25.4910032 65.4653603,25.4910032 Z M67.7253628,21.5295636 C64.8147535,21.5295636 62.9999031,19.4971729 62.9999031,16.293574 C62.9999031,13.0555277 64.7120261,11.1953735 67.6226354,11.1953735 C70.4990021,11.1953735 72.3823375,12.9521858 72.3823375,15.8457591 L72.3823375,16.98252 C72.3823375,19.7038567 70.4990021,21.5295636 67.7253628,21.5295636 Z M102.363792,16.293574 C102.363792,10.6097694 98.6313633,7.233934 92.1252956,7.233934 C85.8246827,7.233934 81.7498298,10.7131113 81.7498298,16.5002578 C81.7498298,22.149615 85.7904402,25.4910032 92.4677202,25.4910032 C96.8507553,25.4910032 100.240759,23.8375327 102.021367,20.9439595 L97.6383319,18.9460161 C96.611058,20.5994865 94.83045,21.460669 92.6046901,21.460669 C89.4886261,21.460669 87.5368058,20.0483297 87.3655935,17.671466 L102.363792,17.671466 L102.363792,16.293574 Z M96.611058,14.4678671 L87.331351,14.4678671 C87.5025633,12.056556 89.2489288,10.6097694 92.0568107,10.6097694 C94.7962076,10.6097694 96.611058,12.0221087 96.611058,14.3989725 L96.611058,14.4678671 Z M6.12940053,66.311054 L6.12940053,41.8534708 L0,41.8534708 L0,66.311054 L6.12940053,66.311054 Z M11.4634733,66.311054 L17.3189342,66.311054 L17.3189342,57.8370181 C17.3189342,54.7367611 18.9625723,52.9455015 21.8046966,52.9455015 C24.4756086,52.9455015 25.7425797,54.4611827 25.7425797,57.5614397 L25.7425797,66.311054 L31.5980095,66.311054 L31.5980095,56.6658099 C31.5980095,51.3264784 29.0983409,48.5706943 24.3043963,48.5706943 C20.9486351,48.5706943 18.5174203,49.9485864 17.1477219,52.7043704 L17.1477219,49.0874039 L11.4634733,49.0874039 L11.4634733,66.311054 Z M58.8603008,67 C65.6403081,67 70.1603131,63.7964011 71.7012238,58.4226222 L65.4348534,57.0791775 C64.7157617,60.3172237 62.4557592,62.1084834 58.9972706,62.1084834 C54.4087808,62.1084834 51.600899,58.9393317 51.600899,54.0822624 C51.600899,49.1218512 54.3402959,46.0215941 58.8603008,46.0215941 C62.4557592,46.0215941 64.7157617,47.9161956 65.332126,51.2575838 L71.6327389,50.1552702 C70.5712226,44.5748075 65.9142478,41.1645248 58.9972706,41.1645248 C50.6763525,41.1645248 45.2318011,46.3660671 45.2318011,54.151157 C45.2318011,61.9706942 50.2996854,67 58.8603008,67 Z M80.9158702,66.8277635 C84.5455711,66.8277635 87.2164831,65.5532134 88.3464843,63.3830335 C88.3464843,64.4164525 88.4492117,65.4843188 88.5861816,66.311054 L94.3731575,66.311054 C94.0992178,65.1053985 93.962248,63.4863754 93.962248,61.2817482 L93.962248,55.9424166 C93.962248,50.9475581 90.9831539,48.5706943 84.4770862,48.5706943 C78.6901102,48.5706943 74.889197,50.9475581 74.444045,54.8745503 L80.4364757,54.8745503 C80.676173,53.1521853 82.0801139,52.2221082 84.4428437,52.2221082 C86.7713311,52.2221082 88.0725446,53.1521853 88.0725446,55.0812341 L88.0725446,55.5979436 L81.7034468,56.1835477 C78.6558677,56.4935734 76.9437447,57.0102829 75.7452585,57.8370181 C74.5467724,58.6982006 73.8961656,60.007198 73.8961656,61.5917739 C73.8961656,64.8298201 76.6013201,66.8277635 80.9158702,66.8277635 Z M83.1416302,63.2452443 C81.121325,63.2452443 79.8885964,62.4874037 79.8885964,61.2128536 C79.8885964,59.8694088 80.8816277,59.1804628 83.4840548,58.8704371 L88.2095145,58.3881749 L88.2095145,59.4904885 C88.2095145,61.7640104 86.1549668,63.2452443 83.1416302,63.2452443 Z M104.701307,41.3367613 L98.8458456,41.3367613 L98.8458456,66.311054 L104.701307,66.311054 L104.701307,41.3367613 Z M109.807169,46.6071982 L115.970501,46.6071982 L115.970501,41.4745505 L109.807169,41.4745505 L109.807169,46.6071982 Z M109.944139,66.311054 L115.7996,66.311054 L115.7996,49.0874039 L109.944139,49.0874039 L109.944139,66.311054 Z M134.027796,49.0874039 L128.549002,49.0874039 L128.549002,47.9850902 C128.549002,46.124936 129.439306,45.3326481 131.528096,45.3326481 C132.349915,45.3326481 133.137492,45.4015427 134.027796,45.5737792 L134.027796,41.4401032 C133.000522,41.1989721 131.836278,41.0611829 130.637792,41.0611829 C125.364453,41.0611829 122.693541,43.369152 122.693541,47.9161956 L122.693541,49.0874039 L118.92687,49.0874039 L118.92687,52.9455015 L122.693541,52.9455015 L122.693541,66.311054 L128.549002,66.311054 L128.549002,52.9455015 L134.027796,52.9455015 L134.027796,49.0874039 Z M145.636301,66.8277635 C151.868429,66.8277635 156.354192,63.4863754 156.354192,57.6647816 C156.354192,51.8431879 151.868429,48.5706943 145.636301,48.5706943 C139.404173,48.5706943 134.952653,51.8431879 134.952653,57.6647816 C134.952653,63.4863754 139.404173,66.8277635 145.636301,66.8277635 Z M145.636301,62.866324 C142.725692,62.866324 140.876599,61.0406171 140.876599,57.6647816 C140.876599,54.2889462 142.725692,52.5321339 145.636301,52.5321339 C148.546911,52.5321339 150.396004,54.2889462 150.396004,57.6647816 C150.396004,61.0406171 148.546911,62.866324 145.636301,62.866324 Z M165.144854,53.8411313 L165.144854,49.0874039 L159.80303,49.0874039 L159.80303,66.311054 L165.658491,66.311054 L165.658491,59.8349615 C165.658491,57.94036 166.069401,56.3557842 167.199402,55.2879179 C168.055463,54.4611827 169.322435,53.9789205 171.137285,53.9789205 C171.787892,53.9789205 172.301529,54.0133678 172.883651,54.1167097 L172.883651,48.7429308 C172.541226,48.6740362 172.267286,48.6395889 171.753649,48.6395889 C168.397888,48.6395889 166.103643,50.5686378 165.144854,53.8411313 Z M175.987885,66.311054 L181.843346,66.311054 L181.843346,57.8370181 C181.843346,54.7367611 183.486984,52.9455015 186.329109,52.9455015 C189.000021,52.9455015 190.266992,54.4611827 190.266992,57.5614397 L190.266992,66.311054 L196.122453,66.311054 L196.122453,56.6658099 C196.122453,51.3264784 193.622753,48.5706943 188.828808,48.5706943 C185.473047,48.5706943 183.041832,49.9485864 181.672134,52.7043704 L181.672134,49.0874039 L175.987885,49.0874039 L175.987885,66.311054 Z M200.629694,46.6071982 L206.793338,46.6071982 L206.793338,41.4745505 L200.629694,41.4745505 L200.629694,46.6071982 Z M200.766664,66.311054 L206.622125,66.311054 L206.622125,49.0874039 L200.766664,49.0874039 L200.766664,66.311054 Z M217.317291,66.8277635 C220.946992,66.8277635 223.617904,65.5532134 224.747905,63.3830335 C224.747905,64.4164525 224.850633,65.4843188 224.987602,66.311054 L230.774578,66.311054 C230.500639,65.1053985 230.363669,63.4863754 230.363669,61.2817482 L230.363669,55.9424166 C230.363669,50.9475581 227.384575,48.5706943 220.878507,48.5706943 C215.091531,48.5706943 211.290618,50.9475581 210.845466,54.8745503 L216.837897,54.8745503 C217.077594,53.1521853 218.481535,52.2221082 220.844265,52.2221082 C223.172752,52.2221082 224.473966,53.1521853 224.473966,55.0812341 L224.473966,55.5979436 L218.104868,56.1835477 C215.057289,56.4935734 213.345166,57.0102829 212.146679,57.8370181 C210.948193,58.6982006 210.297586,60.007198 210.297586,61.5917739 C210.297586,64.8298201 213.002741,66.8277635 217.317291,66.8277635 Z M219.543051,63.2452443 C217.522746,63.2452443 216.290017,62.4874037 216.290017,61.2128536 C216.290017,59.8694088 217.283049,59.1804628 219.885476,58.8704371 L224.610935,58.3881749 L224.610935,59.4904885 C224.610935,61.7640104 222.556388,63.2452443 219.543051,63.2452443 Z M241,60.696144 L234.665145,60.696144 L234.665145,66.311054 L241,66.311054 L241,60.696144 Z" id="Shape"></path>
            </g>
        </g>
    </g>
</svg>